<?xml version="1.0" encoding="UTF-8"?>
<svg enable-background="new 0 0 500 500" version="1.1" viewBox="0 0 500 500" xml:space="preserve" xmlns="http://www.w3.org/2000/svg">
<style type="text/css">
	.st0{fill:#F5F5F5;}
	.st1{fill:#EBEBEB;}
	.st2{fill:#E0E0E0;}
	.st3{fill:#FAFAFA;}
	.st4{fill:#FFFFFF;}
	.st5{fill:#263238;}
	.st6{fill:#4318FF;}
	.st7{font-family:'Poppins-SemiBold';}
	.st8{font-size:12px;}
	.st9{font-size:6px;}
	.st10{fill:#455A64;}
	.st11{fill:#FFBE9D;}
	.st12{fill:#EB996E;}
	.st13{opacity:0.3;}
	.st14{opacity:0.6;}
</style>
	<rect "st0" x="80.8" y="128.7" width="106" height="335.8"/>
	<rect "st1" x="133.8" y="128.7" width="53" height="334.9"/>
	<rect "st0" x="92.9" y="95.8" width="37.4" height="33"/>
	<rect "st1" x="121.4" y="95.8" width="8.9" height="33"/>
	<polyline "st2" points="72 128.7 72 126.8 189.9 126.8 189.9 128.7"/>
	<rect "st3" x="101.7" y="143.1" width="9" height="18.9"/>
	<path "st2" d="m133.8 169.5c0 0.2-11.9 0.4-26.5 0.4s-26.5-0.2-26.5-0.4 11.9-0.4 26.5-0.4 26.5 0.2 26.5 0.4z"/>
	<rect "st2" x="155.2" y="143.1" width="9" height="18.9"/>
	<path "st2" d="m187.2 169.5c0 0.2-11.9 0.4-26.5 0.4s-26.5-0.2-26.5-0.4 11.9-0.4 26.5-0.4 26.5 0.2 26.5 0.4z"/>
	<rect "st2" x="155.2" y="180.7" width="9" height="18.9"/>
	<path "st2" d="m187.2 207c0 0.2-11.9 0.4-26.5 0.4s-26.5-0.2-26.5-0.4 11.9-0.4 26.5-0.4 26.5 0.2 26.5 0.4z"/>
	<rect "st2" x="155.2" y="219.4" width="9" height="18.9"/>
	<path "st2" d="m187.2 245.7c0 0.2-11.9 0.4-26.5 0.4s-26.5-0.2-26.5-0.4 11.9-0.4 26.5-0.4 26.5 0.2 26.5 0.4z"/>
	<rect "st2" x="155.2" y="258" width="9" height="18.9"/>
	<path "st2" d="m187.2 284.4c0 0.2-11.9 0.4-26.5 0.4s-26.5-0.2-26.5-0.4 11.9-0.4 26.5-0.4 26.5 0.2 26.5 0.4z"/>
	<rect "st2" x="155.2" y="295.6" width="9" height="18.9"/>
	<path "st2" d="m187.2 322c0 0.2-11.9 0.4-26.5 0.4s-26.5-0.2-26.5-0.4 11.9-0.4 26.5-0.4 26.5 0.2 26.5 0.4z"/>
	<rect "st2" x="155.2" y="333.4" width="9" height="18.9"/>
	<rect "st2" x="155.2" y="371.6" width="9" height="18.9"/>
	<path "st2" d="m187.2 359.7c0 0.2-11.9 0.4-26.5 0.4s-26.5-0.2-26.5-0.4 11.9-0.4 26.5-0.4 26.5 0.2 26.5 0.4z"/>
	<rect "st3" x="101.7" y="181.2" width="9" height="18.9"/>
	<path "st2" d="m133.8 207.6c0 0.2-11.9 0.4-26.5 0.4s-26.5-0.2-26.5-0.4 11.9-0.4 26.5-0.4 26.5 0.2 26.5 0.4z"/>
	<rect "st3" x="101.7" y="219.4" width="9" height="18.9"/>
	<path "st2" d="m133.8 245.7c0 0.2-11.9 0.4-26.5 0.4s-26.5-0.2-26.5-0.4 11.9-0.4 26.5-0.4 26.5 0.2 26.5 0.4z"/>
	<rect "st3" x="101.7" y="257.5" width="9" height="18.9"/>
	<path "st2" d="m133.8 283.8c0 0.2-11.9 0.4-26.5 0.4s-26.5-0.2-26.5-0.4 11.9-0.4 26.5-0.4 26.5 0.2 26.5 0.4z"/>
	<rect "st3" x="101.7" y="295.6" width="9" height="18.9"/>
	<path "st2" d="m133.8 322c0 0.2-11.9 0.4-26.5 0.4s-26.5-0.2-26.5-0.4 11.9-0.4 26.5-0.4 26.5 0.2 26.5 0.4z"/>
	<rect "st3" x="101.7" y="333.7" width="9" height="18.9"/>
	<path "st2" d="m133.8 360.1c0 0.2-11.9 0.4-26.5 0.4s-26.5-0.2-26.5-0.4 11.9-0.4 26.5-0.4 26.5 0.2 26.5 0.4z"/>
	<rect "st3" x="101.7" y="371.9" width="9" height="18.9"/>
	<polygon "st1" points="157.6 463.8 35.2 463.8 34.6 270.2 157.1 270.2"/>
	<rect "st2" x="95.9" y="270.2" width="61.2" height="193.5"/>
	<rect "st1" x="48.6" y="232.1" width="43.2" height="38.1"/>
	<rect "st2" x="81.6" y="232.1" width="10.3" height="38.1"/>
	<rect "st2" x="24.4" y="268" width="136.2" height="2.2"/>
	<rect "st4" x="58.8" y="286.8" width="10.4" height="21.9"/>
	<path "st2" d="m95.9 317.3c0 0.2-13.7 0.4-30.6 0.4s-30.6-0.2-30.6-0.4 13.7-0.4 30.6-0.4 30.6 0.1 30.6 0.4z"/>
	<rect "st0" x="120.6" y="286.8" width="10.4" height="21.9"/>
	<path "st1" d="m157.6 317.3c0 0.2-13.7 0.4-30.6 0.4s-30.6-0.2-30.6-0.4 13.7-0.4 30.6-0.4 30.6 0.1 30.6 0.4z"/>
	<rect "st0" x="120.6" y="330.2" width="10.4" height="21.9"/>
	<path "st1" d="m157.6 360.6c0 0.2-13.7 0.4-30.6 0.4s-30.6-0.2-30.6-0.4 13.7-0.4 30.6-0.4 30.6 0.2 30.6 0.4z"/>
	<rect "st0" x="120.6" y="374.9" width="10.4" height="21.9"/>
	<path "st1" d="m157.6 405.4c0 0.2-13.7 0.4-30.6 0.4s-30.6-0.2-30.6-0.4 13.7-0.4 30.6-0.4 30.6 0.1 30.6 0.4z"/>
	<rect "st0" x="120.6" y="419.6" width="10.4" height="21.9"/>
	<path "st1" d="m157.6 450.1c0 0.2-13.7 0.4-30.6 0.4s-30.6-0.2-30.6-0.4 13.7-0.4 30.6-0.4 30.6 0.1 30.6 0.4z"/>
	<rect "st4" x="58.8" y="330.9" width="10.4" height="21.9"/>
	<path "st2" d="m95.9 361.3c0 0.2-13.7 0.4-30.6 0.4s-30.6-0.2-30.6-0.4 13.7-0.4 30.6-0.4 30.6 0.2 30.6 0.4z"/>
	<rect "st4" x="58.8" y="374.9" width="10.4" height="21.9"/>
	<path "st2" d="m95.9 405.4c0 0.2-13.7 0.4-30.6 0.4s-30.6-0.2-30.6-0.4 13.7-0.4 30.6-0.4 30.6 0.1 30.6 0.4z"/>
	<rect "st4" x="58.8" y="419" width="10.4" height="21.9"/>
	<path "st2" d="m95.9 449.4c0 0.2-13.7 0.4-30.6 0.4s-30.6-0.2-30.6-0.4 13.7-0.4 30.6-0.4 30.6 0.2 30.6 0.4z"/>
	<rect "st1" x="270.3" y="303.7" width="121.5" height="160.2"/>
	<rect "st2" x="334.8" y="303.7" width="57" height="160.2"/>
	<rect "st0" x="295.8" y="325.4" width="10.9" height="26.5"/>
	<rect "st0" x="295.8" y="429.2" width="10.9" height="26.5"/>
	<path "st0" d="m334.8 362.3c0 0.3-14.4 0.5-32.3 0.5s-32.3-0.2-32.3-0.5 14.4-0.5 32.3-0.5 32.3 0.2 32.3 0.5z"/>
	<rect "st0" x="295.8" y="377.7" width="10.9" height="26.5"/>
	<path "st0" d="m334.8 414.6c0 0.3-14.4 0.5-32.3 0.5s-32.3-0.2-32.3-0.5 14.4-0.5 32.3-0.5 32.3 0.3 32.3 0.5z"/>
	<rect "st0" x="346.9" y="325.4" width="10.9" height="26.5"/>
	<rect "st0" x="370.6" y="325.4" width="10.9" height="26.5"/>
	<rect "st0" x="346.9" y="375.7" width="10.9" height="26.5"/>
	<rect "st0" x="370.6" y="375.7" width="10.9" height="26.5"/>
	<rect "st0" x="346.9" y="426.1" width="10.9" height="26.5"/>
	<rect "st0" x="370.6" y="426.1" width="10.9" height="26.5"/>
	<rect "st2" x="261.2" y="298.1" width="139.8" height="5.8"/>
	<path "st1" d="m392.6 304.4c0 0.3-27.2 0.5-60.6 0.5s-60.6-0.2-60.6-0.5 27.1-0.5 60.6-0.5 60.6 0.2 60.6 0.5z"/>
	<path "st1" d="m390.7 70.5c0.6-4.3-5.5-7.8-10-8.2-2.2-0.2-4.4 0.2-6.5-0.6-4.4-1.5-6.2-7.3-10.5-9.1-3.2-1.4-7-0.2-10.1 1.4s-6.2 3.6-9.8 3.8c-3 0.2-6.4-0.9-9 0.6-2 1.1-3 3.4-4.9 4.8-1.9 1.3-4.1 1.6-6.4 1.7s-4.5 0.1-6.6 1.1-3.7 3.1-3.3 5.3l77.1-0.8z"/>
	<path "st0" d="m476.7 120.1c0.9-6.4-8.2-11.7-15-12.3-3.2-0.3-6.6 0.2-9.7-0.8-6.7-2.3-9.3-11-15.9-13.7-4.9-2-10.5-0.2-15.2 2.2s-9.4 5.4-14.6 5.7c-4.6 0.3-9.6-1.4-13.6 0.8-3 1.7-4.5 5.1-7.3 7.2s-6.2 2.4-9.6 2.6-6.8 0.2-9.9 1.6-5.6 4.6-4.9 7.9l115.7-1.2z"/>
	<path "st0" d="m96.1 58.8c0.4-3.3-4.2-6-7.6-6.2-1.7-0.1-3.4 0.1-4.9-0.4-3.4-1.2-4.8-5.6-8.1-7-2.5-1-5.3-0.1-7.7 1.1s-4.8 2.7-7.5 2.9c-2.3 0.2-4.9-0.7-6.9 0.4-1.5 0.8-2.3 2.6-3.7 3.6-1.5 0.9-3.1 1.4-4.9 1.3-1.7 0-3.4 0.2-5 0.8-1.5 0.7-2.8 2.3-2.5 4l58.8-0.5z"/>
	<path "st5" d="m470.2 464.5c0 0.1-97.2 0.3-217.2 0.3s-217.2-0.1-217.2-0.3 97.2-0.3 217.2-0.3 217.2 0.1 217.2 0.3z"/>
	<path "st5" d="m302.5 464.5-144.3-0.1c-17.3 0-31.4-14.1-31.4-31.4l0.1-361.7c0-17.4 14.1-31.4 31.4-31.4l144.3 0.1c17.3 0 31.4 14 31.4 31.4l-0.1 361.7c0 17.3-14 31.4-31.4 31.4z"/>
	<path "st4" d="m303.6 52.7h-28c-3.8 0.1-6.9 3.3-6.8 7.1v5.1c0.1 3.8-3 7-6.8 7.1h-54.5c-3.8-0.1-6.8-3.3-6.8-7.1v-5.1c0.1-3.8-3-7-6.8-7.1h-34.3c-12.2 0-22 9.8-22 22l-0.1 353c0 12.2 9.8 22 22 22l144 0.1c12.2 0 22-9.8 22-22l0.1-353c0.1-12.2-9.8-22.1-22-22.1 0.1 0 0 0 0 0z"/>
	<path "st5" d="m303.6 52.7h0.8c0.7 0 1.5 0.1 2.2 0.2 2.9 0.4 5.7 1.3 8.2 2.8 1.9 1.1 3.6 2.5 5 4.1 1.8 1.9 3.2 4.1 4.2 6.6 1.1 2.8 1.7 5.9 1.6 8.9v10.4c0 29.3 0 71.8 0.1 124.2s0 114.9 0 184.2v33c0 2.3-0.2 4.5-0.8 6.7s-1.6 4.3-2.8 6.2c-1.3 1.9-2.8 3.6-4.6 5.1-3.6 2.9-8 4.7-12.6 5-4.6 0.1-9.2 0-13.8 0.1h-129.8c-5.1 0.3-10.1-1.1-14.3-4s-7.3-7.2-8.7-12.1c-0.7-2.4-1-4.9-0.9-7.4v-7.5-29.4-57.5-108.8s0-67.6 0.1-98.4v-44.6-5.5c0-0.9 0.1-1.8 0.1-2.7s0.2-1.8 0.4-2.6c0.8-3.4 2.4-6.6 4.6-9.3 4.4-5.3 11-8.2 17.9-8h33c1.5-0.1 3.1 0.3 4.3 1.2s2.2 2.1 2.7 3.5c0.4 1.4 0.6 2.9 0.4 4.3v2.1c0 0.7 0 1.4 0.1 2.1 0.2 1.4 0.7 2.6 1.6 3.7s2.1 1.8 3.4 2.1c0.7 0.2 1.3 0.2 2 0.2h10l29 0.1h12.8 3c1-0.1 1.9-0.5 2.7-1 1.6-1 2.7-2.6 3.1-4.4 0.2-0.9 0.2-1.8 0.2-2.7v-2.6c0-0.9 0-1.7 0.1-2.6 0.1-0.8 0.4-1.6 0.8-2.4 0.8-1.4 2-2.5 3.5-3.1 1.4-0.4 2.9-0.6 4.4-0.5h23.1l2.9 0.3-3-0.1h-23.1c-1.4-0.1-2.9 0-4.3 0.5-1.4 0.6-2.7 1.6-3.4 3-0.4 0.7-0.7 1.5-0.8 2.3s-0.1 1.7-0.1 2.5v2.6c0 0.9 0 1.8-0.2 2.7-0.4 1.9-1.5 3.6-3.2 4.6-0.8 0.5-1.8 0.9-2.8 1s-2 0-3 0h-51.7c-0.7 0-1.4 0-2.1-0.2-1.4-0.3-2.6-1.1-3.6-2.2-0.9-1.1-1.6-2.4-1.7-3.9-0.1-0.7-0.1-1.4-0.1-2.2v-1.9c0.1-1.4 0-2.8-0.4-4.2-0.5-1.3-1.4-2.5-2.5-3.3-1.2-0.8-2.7-1.2-4.1-1.1h-32.9c-6.7-0.3-13.2 2.6-17.5 7.8-2.2 2.6-3.8 5.8-4.5 9.1-0.2 0.8-0.3 1.7-0.4 2.6s-0.1 1.7-0.1 2.6v5.3 44.6 98.4s0 71.1 0 108.8v57.5 29.4 7.4c-0.1 2.5 0.2 4.9 0.9 7.3 1.4 4.8 4.4 8.9 8.5 11.7s9 4.1 14 3.9h129.8c4.6 0 9.2 0.1 13.8-0.1 4.5-0.3 8.9-1.9 12.4-4.8 1.7-1.4 3.2-3.1 4.5-5 1.2-1.8 2.1-3.9 2.7-6s0.9-4.3 0.8-6.5v-6.7-26.3c0-69.3 0.1-131.8 0.1-184.2s0.1-94.8 0.1-124.2v-10.4c0.1-3-0.5-6.1-1.6-8.9-1-2.4-2.4-4.6-4.1-6.5-3.4-3.8-8.1-6.3-13.2-7-0.7-0.1-1.5-0.2-2.2-0.2l-1 0.3z"/>
	<path "st5" d="m307.9 88.3c0 0.1-3.6 0.2-8.1 0.2s-8.1 0-8.1-0.1 3.6-0.2 8.1-0.2 8.1 0 8.1 0.1z"/>
	<path "st5" d="m307.9 92.5c0 0.1-3.6 0.2-8.1 0.2s-8.1 0-8.1-0.1 3.6-0.2 8.1-0.2 8.1 0 8.1 0.1z"/>
	<path "st5" d="m308 96.7c0 0.1-3.6 0.2-8.1 0.2s-8.1 0-8.1-0.1 3.6-0.2 8.1-0.2 8.1 0 8.1 0.1z"/>
	<path "st5" d="m160.1 101.4h1.2l3.5-0.1-0.1 0.1v-2.5-1.4c0.1-0.6 0.6-1 1.2-1.1h1.7c0.7 0.1 1.1 0.7 1.1 1.3v3.7l-0.2-0.2h4.4l-0.2 0.2v-5.5-1.4c0-0.4-0.3-0.8-0.6-1l-1.9-1.9-1.9-1.8-0.9-0.9c-0.2-0.3-0.5-0.5-0.9-0.7-0.3-0.1-0.7 0-1 0.2s-0.6 0.6-0.8 0.8l-4.4 4.4c-0.2 0.5-0.3 1.1-0.2 1.6v1.6 2.5s0 1.2 0 1.6 0 0.6 0 0.6v-0.5c0-0.4 0-0.9-0.1-1.6s0-1.6 0-2.5v-1.6-0.9c0-0.3 0.1-0.6 0.2-0.9 0.8-1 1.8-1.9 2.8-2.9l1.6-1.6c0.3-0.3 0.5-0.6 0.8-0.8 0.4-0.3 0.8-0.4 1.3-0.2 0.4 0.1 0.8 0.4 1.1 0.8l0.9 0.9 1.9 1.8 2.4 2.4c0.1 0.2 0.2 0.5 0.2 0.7v1.4 5.4 0.2h-4.8v-0.2-3.7c0-0.5-0.4-1-0.9-1.1h-1.6c-0.5 0-0.9 0.4-0.9 0.8v1.4 2.6h-4.5c-0.1 0.1-0.2 0.1-0.4 0z"/>
	<path "st6" d="m158.9 199.6h56.8c1.4 0 2.6 1.1 2.6 2.6v50.7c0 1.4-1.1 2.6-2.6 2.6h-56.8c-1.4 0-2.6-1.1-2.6-2.6v-50.7c0-1.5 1.2-2.6 2.6-2.6z"/>
	<polygon "st6" points="258.7 205.8 259.1 206.8 260.1 206.9 259.4 207.6 259.6 208.6 258.7 208.1 257.8 208.6 257.9 207.6 257.2 206.9 258.2 206.8"/>
	<polygon "st6" points="262.6 205.8 263.1 206.8 264.1 206.9 263.4 207.6 263.5 208.6 262.6 208.1 261.7 208.6 261.9 207.6 261.2 206.9 262.2 206.8"/>
	<polygon "st6" points="266.6 205.8 267 206.8 268.1 206.9 267.3 207.6 267.5 208.6 266.6 208.1 265.7 208.6 265.9 207.6 265.1 206.9 266.1 206.8"/>
	<polygon "st6" points="270.5 205.8 271 206.8 272 206.9 271.3 207.6 271.5 208.6 270.5 208.1 269.6 208.6 269.8 207.6 269.1 206.9 270.1 206.8"/>
	<polygon "st6" points="274.5 205.8 275 206.8 276 206.9 275.2 207.6 275.4 208.6 274.5 208.1 273.6 208.6 273.8 207.6 273 206.9 274.1 206.8"/>
	<path "st2" d="m275.3 215.9c0 0.1-9.6 0.3-21.4 0.3s-21.4-0.1-21.4-0.3 9.6-0.3 21.4-0.3 21.4 0.2 21.4 0.3z"/>
	<path "st5" d="m309 223.2c0 0.1-17.4 0.3-38.7 0.3s-38.7-0.1-38.7-0.3 17.3-0.3 38.7-0.3 38.7 0.1 38.7 0.3z"/>
	<path "st5" d="m270.4 230.6c0 0.1-8.5 0.3-19 0.3s-19-0.1-19-0.3 8.5-0.3 19-0.3c10.4 0 19 0.1 19 0.3z"/>
	<path "st6" d="m236.8 238.6h33.2c3.3 0 6 2.7 6 6v2.4c0 3.3-2.7 6-6 6h-33.2c-3.3 0-6-2.7-6-6v-2.4c0-3.4 2.7-6 6-6z"/>
	<path "st4" d="m249.9 246.4c0 0.7-0.5 1.1-1.6 1.1h-1.9v-4.1h1.8c0.9 0 1.5 0.4 1.5 1.1 0 0.4-0.2 0.7-0.6 0.9 0.5 0 0.8 0.5 0.8 1zm-3-2.5v1.3h1.2c0.6 0 0.9-0.2 0.9-0.6s-0.3-0.6-0.9-0.6l-1.2-0.1zm2.4 2.4c0-0.5-0.3-0.7-1-0.7h-1.3v1.4h1.3c0.6 0 1-0.2 1-0.7z"/>
	<path "st4" d="m250.4 245.9c0-0.9 0.7-1.6 1.6-1.6s1.6 0.7 1.6 1.6-0.7 1.6-1.6 1.6c-0.8 0-1.6-0.6-1.6-1.4v-0.2zm2.6 0c0-0.6-0.5-1-1-1s-1 0.5-1 1 0.5 1 1 1 1-0.4 1-1z"/>
	<path "st4" d="m254.1 245.9c0-0.9 0.7-1.6 1.6-1.6s1.6 0.7 1.6 1.6-0.7 1.6-1.6 1.6c-0.8 0-1.6-0.6-1.6-1.5v-0.1zm2.6 0c0-0.6-0.5-1-1-1-0.6 0-1 0.5-1 1s0.5 1 1 1c0.6 0 1-0.4 1-1z"/>
	<path "st4" d="m259.3 246-0.6 0.6v0.8h-0.6v-4.3h0.6v2.8l1.7-1.5h0.7l-1.3 1.3 1.4 1.8h-0.7l-1.2-1.5z"/>
	<path "st4" d="m195.2 245.4v-0.6-1.8c0-1.6 0-3.8-0.1-6.6 0-5.6-0.1-13.6-0.1-22.9l0.2 0.2h-21.5c-0.1 0 0.5-0.5 0.3-0.3v8.8 8.3 14.7l-0.2-0.2 15.6 0.1h5.4 0.4-0.4-5.4l-15.7 0.1h-0.2v-0.2-14.7-8.3-4-2.2-2.2l0.3-0.3h21.7v0.2c-0.1 9.4-0.1 17.4-0.1 23.1 0 2.8-0.1 5-0.1 6.5v1.7c0.1 0.2 0 0.4-0.1 0.6z"/>
	<path "st4" d="m191 209.3c0.2 1.4 0.3 2.8 0.2 4.2v0.2h-3l-0.3-0.3v-1.1-1.1-2.2h0.2c1 0.1 1.9 0.1 2.9 0.3-1 0.1-1.9 0.2-2.9 0.2l0.2-0.2v2 1.1 1.1c0.2 0.2-0.3-0.3-0.3-0.2h2.8l-0.2 0.2c0.1-1.4 0.2-2.8 0.4-4.2z"/>
	<path "st4" d="m203.2 245.6h-0.5-7.7v-0.1c-0.1-7.2-0.1-18.8-0.1-31.9v-0.3h8.6v0.3c0 9.1-0.1 17.2-0.1 23 0 2.8-0.1 5.1-0.1 6.7v1.8c0 0.2 0 0.4-0.1 0.5v-0.6-1.8c0-1.6 0-3.9-0.1-6.8 0-5.8-0.1-13.7-0.1-22.8l0.3 0.2h-8l0.3-0.3c0 13.1 0 24.7-0.1 31.9l-0.1-0.2 5.9 0.2 1.6 0.1c0 0.1 0.2 0.1 0.3 0.1z"/>
	<rect "st4" x="177.1" y="217.6" width="3.3" height="3.3"/>
	<rect "st4" x="182.8" y="217.6" width="3.3" height="3.3"/>
	<rect "st4" x="188.4" y="217.6" width="3.3" height="3.3"/>
	<rect "st4" x="177.1" y="223.3" width="3.3" height="3.3"/>
	<rect "st4" x="182.8" y="223.3" width="3.3" height="3.3"/>
	<rect "st4" x="188.4" y="223.3" width="3.3" height="3.3"/>
	<rect "st4" x="177.1" y="229" width="3.3" height="3.3"/>
	<rect "st4" x="182.8" y="229" width="3.3" height="3.3"/>
	<rect "st4" x="188.4" y="229" width="3.3" height="3.3"/>
	<rect "st4" x="177.1" y="234.8" width="3.3" height="3.3"/>
	<rect "st4" x="182.8" y="234.8" width="3.3" height="3.3"/>
	<rect "st4" x="188.4" y="234.8" width="3.3" height="3.3"/>
	<rect "st4" x="197.3" y="217.6" width="3.3" height="3.3"/>
	<rect "st4" x="197.3" y="223.3" width="3.3" height="3.3"/>
	<rect "st4" x="197.3" y="229" width="3.3" height="3.3"/>
	<rect "st4" x="197.3" y="234.8" width="3.3" height="3.3"/>
	<rect "st4" x="183.2" y="240.3" width="3.3" height="5.2"/>
	<path "st4" d="m210.4 245.4c0 0.1-10.3 0.3-23.1 0.3s-23.1-0.1-23.1-0.3 10.3-0.3 23.1-0.3 23.1 0.2 23.1 0.3z"/>
	<path "st6" d="m312.9 263.1c0.4 0 0.8-0.1 1.2-0.2 1.2-0.3 2.2-1 2.9-2 0.5-0.7 0.8-1.6 0.8-2.5v-3.2-8.1c0-12.1 0-29.7-0.1-51.3 0-0.7 0-1.3-0.2-2-0.2-0.6-0.5-1.2-0.9-1.8-0.9-1.1-2.1-1.7-3.5-1.8h-161c-2 0-3.8 1.3-4.5 3.2-0.3 1-0.4 2-0.3 3v3.1 12.2 23.8 22.9c0.1 1.8 1.3 3.4 3 4.1 0.4 0.2 0.8 0.3 1.3 0.3h1.4 13.6l76.1 0.1 51.3 0.1h14 3.6l1.3 0.1-1.2-0.1h-3.7-14l-51.3 0.1h-76.1-13.6-1.4c-0.5-0.1-1-0.2-1.4-0.3-1.9-0.7-3.1-2.5-3.3-4.5v-23-39-1.6c0-0.5 0.1-1.1 0.3-1.6 0.8-2.1 2.8-3.5 5-3.5h160.9c1.5 0.1 2.8 0.8 3.8 1.9 0.5 0.6 0.8 1.2 1 1.9s0.2 1.4 0.2 2.1c0 21.7-0.1 39.2-0.1 51.3v8.1 3.2c-0.1 2.2-1.7 4-3.8 4.5-0.3 0.1-0.6 0.1-0.9 0.1l-0.4 0.4z"/>
	<path "st6" d="m157 282.1h56.8c1.4 0 2.6 1.1 2.6 2.5v50.7c0 1.4-1.1 2.5-2.6 2.5h-56.8c-1.4 0-2.6-1.1-2.6-2.5v-50.7c0.1-1.4 1.2-2.5 2.6-2.5z"/>
	<polygon "st6" points="256.8 288.4 257.3 289.3 258.3 289.4 257.6 290.2 257.8 291.2 256.8 290.7 255.9 291.2 256.1 290.2 255.4 289.4 256.4 289.3"/>
	<polygon "st6" points="260.8 288.4 261.2 289.3 262.3 289.4 261.5 290.2 261.7 291.2 260.8 290.7 259.9 291.2 260.1 290.2 259.3 289.4 260.3 289.3"/>
	<polygon "st6" points="264.8 288.4 265.2 289.3 266.2 289.4 265.5 290.2 265.7 291.2 264.8 290.7 263.9 291.2 264 290.2 263.3 289.4 264.3 289.3"/>
	<polygon "st2" points="268.7 288.4 269.2 289.3 270.2 289.4 269.5 290.2 269.6 291.2 268.7 290.7 267.8 291.2 268 290.2 267.2 289.4 268.3 289.3"/>
	<polygon "st2" points="272.7 288.4 273.1 289.3 274.1 289.4 273.4 290.2 273.6 291.2 272.7 290.7 271.8 291.2 271.9 290.2 271.2 289.4 272.2 289.3"/>
	<path "st2" d="m273.4 298.4c0 0.1-9.6 0.3-21.4 0.3s-21.4-0.1-21.4-0.3 9.6-0.3 21.4-0.3c11.9 0.1 21.4 0.2 21.4 0.3z"/>
	<path "st5" d="m307.2 305.7c0 0.1-17.3 0.3-38.7 0.3s-38.7-0.1-38.7-0.3 17.3-0.3 38.7-0.3 38.7 0.1 38.7 0.3z"/>
	<path "st5" d="m268.5 313.1c0 0.1-8.5 0.3-19 0.3s-19-0.1-19-0.3 8.5-0.3 19-0.3c10.5 0.1 19 0.2 19 0.3z"/>
	<path "st6" d="m268.2 335.5s0.4 0 1.1-0.1c1-0.2 2-0.7 2.8-1.4 1.2-1.1 2-2.7 2-4.3v-3.1c-0.1-1.1-0.6-2.2-1.3-3.1-0.8-1-1.9-1.6-3.1-1.9-0.7-0.1-1.3-0.2-2-0.2h-32.7c-2.7 0-5.1 2-5.6 4.6-0.1 0.9-0.1 1.7-0.1 2.6-0.1 0.9 0 1.7 0.3 2.5 0.7 2.4 2.9 4 5.4 4.1l17.3 0.1 11.7 0.1h3.2 1.1-0.3-4l-11.7 0.1h-17.3c-2.7 0-5.1-1.8-5.9-4.4-0.2-0.9-0.3-1.8-0.3-2.7s0-1.8 0.1-2.7c0.2-0.9 0.6-1.8 1.1-2.6 1.2-1.6 3-2.5 5-2.5h32.5c0.7 0 1.4 0 2.1 0.2 1.3 0.3 2.5 1.1 3.3 2.1 0.8 0.9 1.2 2.1 1.4 3.3 0.1 1.1 0 2.2 0 3.1-0.1 1.7-0.8 3.4-2.2 4.5-0.8 0.7-1.8 1.2-2.9 1.3-0.3 0-0.5 0.1-0.8 0.1 0 0.1-0.1 0.2-0.2 0.3z"/>
	<path "st6" d="m248 328.9c0 0.7-0.5 1.1-1.6 1.1h-1.9v-4.1h1.8c0.9 0 1.5 0.4 1.5 1 0 0.4-0.2 0.7-0.5 0.9 0.4 0.1 0.7 0.6 0.7 1.1zm-2.9-2.5v1.3h1.2c0.6 0 0.9-0.2 0.9-0.7s-0.3-0.6-0.9-0.6h-1.2zm2.3 2.4c0-0.5-0.4-0.7-1-0.7h-1.3v1.4h1.3c0.7 0 1-0.2 1-0.7z"/>
	<path "st6" d="m248.6 328.4c0-0.9 0.7-1.6 1.6-1.6s1.6 0.7 1.6 1.6-0.7 1.6-1.6 1.6c-0.8 0-1.6-0.6-1.6-1.4v-0.2zm2.6 0c0-0.6-0.5-1-1-1-0.6 0-1 0.5-1 1s0.5 1 1 1c0.5 0.1 1-0.4 1-1z"/>
	<path "st6" d="m252.2 328.4c0-0.9 0.7-1.6 1.6-1.6s1.6 0.7 1.6 1.6-0.7 1.6-1.6 1.6c-0.8 0-1.6-0.6-1.6-1.4v-0.2zm2.7 0c0-0.6-0.5-1-1-1s-1 0.5-1 1 0.5 1 1 1 1-0.4 1-1z"/>
	<path "st6" d="m257.4 328.5-0.6 0.6v0.9h-0.5v-4.3h0.5v2.8l1.7-1.5h0.7l-1.3 1.3 1.4 1.8h-0.7l-1.2-1.6z"/>
	<path "st4" d="m193.4 328v-0.6s0-1 0-1.8c0-1.6 0-3.8-0.1-6.6 0-5.6-0.1-13.6-0.1-22.9l0.2 0.2h-21.5l0.3-0.2v8.8 8.3 14.7l-0.2-0.2 15.6 0.1h4.4 1.1c0.1 0.1 0.2 0.1 0.3 0.2 0-0.1-0.1-0.1-0.3-0.1h-1.1l-4.3 0.1-15.7 0.1h-0.2v-0.1-14.7-8.3-8.8l0.3-0.3h21.7v0.2c-0.1 9.4-0.1 17.4-0.1 23.1 0 2.8 0 5-0.1 6.5v1.7c-0.1 0.2-0.2 0.4-0.2 0.6z"/>
	<path "st4" d="m189.1 291.9c0.2 1.4 0.3 2.8 0.2 4.2v0.2h-3.1l-0.3-0.3v-1.2-1.1-2-0.2h0.2c1.1 0.1 2 0.2 3 0.4-1 0.1-2 0.1-2.9 0.1l0.2-0.2v2 1.1 1.2l-0.3-0.3h2.9l-0.2 0.2c0-1.4 0.1-2.7 0.3-4.1z"/>
	<path "st4" d="m201.4 328.1h-0.5-7.7v-0.1c-0.1-7.2-0.1-18.8-0.1-31.9v-0.3h8.6v0.2c0 9.1-0.1 17.2-0.1 23 0 2.8-0.1 5.1-0.1 6.7v1.8c-0.1 0.3-0.1 0.5-0.1 0.6v-0.6-1.8c0-1.6 0-3.9-0.1-6.8 0-5.8-0.1-13.7-0.1-22.8l0.2 0.3h-8l0.3-0.3c0 13.1 0 24.7-0.1 31.9l-0.1-0.2 5.9 0.2 1.6 0.1h0.4z"/>
	<rect "st4" x="175.3" y="300.1" width="3.3" height="3.3"/>
	<rect "st4" x="180.9" y="300.1" width="3.3" height="3.3"/>
	<rect "st4" x="186.6" y="300.1" width="3.3" height="3.3"/>
	<rect "st4" x="175.3" y="305.8" width="3.3" height="3.3"/>
	<rect "st4" x="180.9" y="305.8" width="3.3" height="3.3"/>
	<rect "st4" x="186.6" y="305.8" width="3.3" height="3.3"/>
	<rect "st4" x="175.3" y="311.6" width="3.3" height="3.3"/>
	<rect "st4" x="180.9" y="311.6" width="3.3" height="3.3"/>
	<rect "st4" x="186.6" y="311.6" width="3.3" height="3.3"/>
	<rect "st4" x="175.3" y="317.3" width="3.3" height="3.3"/>
	<rect "st4" x="180.9" y="317.3" width="3.3" height="3.3"/>
	<rect "st4" x="186.6" y="317.3" width="3.3" height="3.3"/>
	<rect "st4" x="195.4" y="300.1" width="3.3" height="3.3"/>
	<rect "st4" x="195.4" y="305.8" width="3.3" height="3.3"/>
	<rect "st4" x="195.4" y="311.6" width="3.3" height="3.3"/>
	<rect "st4" x="195.4" y="317.3" width="3.3" height="3.3"/>
	<rect "st4" x="181.3" y="322.8" width="3.3" height="5.2"/>
	<path "st4" d="m208.5 328c0 0.1-10.4 0.3-23.1 0.3s-23.1-0.1-23.1-0.3 10.3-0.3 23.1-0.3 23.1 0.1 23.1 0.3z"/>
	<path "st6" d="m157.8 364.1h56.8c1.4 0 2.6 1.1 2.6 2.5v50.7c0 1.4-1.1 2.5-2.6 2.5h-56.8c-1.4 0-2.6-1.1-2.6-2.5v-50.7c0-1.4 1.2-2.5 2.6-2.5z"/>
	<polygon "st6" points="257.6 370.4 258 371.3 259.1 371.4 258.3 372.1 258.5 373.2 257.6 372.7 256.7 373.2 256.9 372.1 256.1 371.4 257.1 371.3"/>
	<polygon "st6" points="261.6 370.4 262 371.3 263 371.4 262.3 372.1 262.5 373.2 261.6 372.7 260.6 373.2 260.8 372.1 260.1 371.4 261.1 371.3"/>
	<polygon "st2" points="265.5 370.4 266 371.3 267 371.4 266.2 372.1 266.4 373.2 265.5 372.7 264.6 373.2 264.8 372.1 264 371.4 265.1 371.3"/>
	<polygon "st2" points="269.5 370.4 269.9 371.3 271 371.4 270.2 372.1 270.4 373.2 269.5 372.7 268.6 373.2 268.8 372.1 268 371.4 269 371.3"/>
	<polygon "st2" points="273.4 370.4 273.9 371.3 274.9 371.4 274.2 372.1 274.4 373.2 273.4 372.7 272.5 373.2 272.7 372.1 272 371.4 273 371.3"/>
	<path "st2" d="m274.2 380.4c0 0.1-9.6 0.3-21.4 0.3s-21.4-0.1-21.4-0.3 9.6-0.3 21.4-0.3 21.4 0.2 21.4 0.3z"/>
	<path "st5" d="m308 387.7c0 0.1-17.4 0.3-38.7 0.3s-38.7-0.1-38.7-0.3 17.3-0.3 38.7-0.3 38.7 0.1 38.7 0.3z"/>
	<path "st5" d="m269.3 395.1c0 0.1-8.5 0.3-19 0.3s-19-0.1-19-0.3 8.5-0.3 19-0.3c10.5 0.1 19 0.2 19 0.3z"/>
	<path "st6" d="m269 417.5s0.4 0 1.1-0.2c1-0.2 2-0.7 2.8-1.4 1.2-1.1 2-2.7 2-4.3v-3.1c-0.3-2.4-2.1-4.4-4.4-5-0.7-0.1-1.3-0.2-2-0.2h-32.7c-1.8 0-3.5 0.9-4.6 2.3-0.5 0.7-0.9 1.5-1.1 2.4-0.1 0.9-0.2 1.8-0.1 2.6-0.1 0.9 0 1.7 0.2 2.5 0.3 0.8 0.7 1.5 1.2 2.1 1.1 1.2 2.6 1.9 4.2 1.9l17.3 0.1 11.7 0.1h4.3-0.3-0.8-3.2l-11.7 0.1h-17.3c-1.8 0-3.4-0.8-4.6-2.1-0.6-0.7-1-1.5-1.3-2.3-0.2-0.9-0.3-1.8-0.3-2.7s0-1.8 0.1-2.7c0.6-2.9 3.2-5.1 6.2-5.1h32.6c0.7 0 1.4 0 2.1 0.2 2.5 0.6 4.4 2.8 4.7 5.4 0.1 1.1 0 2.2 0 3.1-0.1 1.7-0.8 3.4-2.2 4.5-0.8 0.7-1.8 1.2-2.9 1.3-0.3 0.1-0.5 0.1-0.8 0.1 0 0.2-0.1 0.3-0.2 0.4z"/>
	<path "st6" d="m248.8 410.9c0 0.7-0.5 1.1-1.6 1.1h-1.9v-4.1h1.8c0.9 0 1.4 0.4 1.4 1.1 0 0.4-0.2 0.7-0.5 0.9 0.5 0.1 0.8 0.5 0.8 1zm-2.9-2.5v1.3h1.2c0.6 0 0.9-0.2 0.9-0.6s-0.3-0.6-0.9-0.6h-1.2zm2.3 2.4c0-0.5-0.4-0.7-1-0.7h-1.3v1.4h1.3c0.7 0 1-0.2 1-0.7z"/>
	<path "st6" d="m249.3 410.4c0-0.9 0.7-1.6 1.6-1.6s1.6 0.7 1.6 1.6-0.7 1.6-1.6 1.6c-0.8 0-1.6-0.6-1.6-1.4v-0.2zm2.7 0c0-0.6-0.5-1-1.1-0.9-0.6 0-1 0.5-0.9 1.1 0 0.5 0.5 0.9 1 0.9 0.6 0 1-0.4 1-1v-0.1z"/>
	<path "st6" d="m253 410.4c0-0.9 0.7-1.6 1.6-1.6s1.6 0.7 1.6 1.6-0.7 1.6-1.6 1.6c-0.8 0-1.6-0.6-1.6-1.4v-0.2zm2.6 0c0-0.6-0.5-1-1-1s-1 0.5-1 1 0.5 1 1 1 1-0.4 1-1z"/>
	<path "st6" d="m258.2 410.5-0.6 0.6v0.9h-0.6v-4.3h0.6v2.8l1.7-1.5h0.7l-1.3 1.3 1.4 1.8h-0.7l-1.2-1.6z"/>
	<path "st4" d="m194.1 410v-0.6-1.8c0-1.6 0-3.8-0.1-6.6 0-5.6-0.1-13.6-0.1-22.9l0.2 0.2h-21.5c-0.1 0 0.5-0.5 0.2-0.3v8.8 8.3 14.7l-0.2-0.2 15.6 0.1h4.3 1.5-0.4-1.1-4.3l-15.7 0.1h-0.2v0.2-14.7-8.3-4.4-4.4l0.3-0.3h21.7v0.2c0 9.4-0.1 17.4-0.1 23.1 0 2.8-0.1 5-0.1 6.5v1.7c0.2 0.2 0.1 0.4 0 0.6z"/>
	<path "st4" d="m189.9 373.9c0.2 1.4 0.3 2.8 0.2 4.2v0.2h-3l-0.3-0.3v-1.1-1.1-2.2h0.2c1 0 1.9 0.1 2.9 0.3-1 0.1-1.9 0.2-2.9 0.2l0.2-0.2v2 1.1 0.6 0.6l-0.3-0.3h2.8l-0.2 0.2c0.1-1.5 0.2-2.9 0.4-4.2z"/>
	<path "st4" d="m202.1 410.1h-0.5-7.6v-0.1c-0.1-7.2-0.1-18.8-0.1-31.9v-0.3h8.5v0.3c0 9.1-0.1 17.2-0.1 23 0 2.8-0.1 5.1-0.1 6.7v1.8c0.1 0.2 0.1 0.4-0.1 0.5 0.1 0.1 0.1-0.2 0.1-0.6s0-1.1 0-1.8c0-1.6 0-3.9-0.1-6.8 0-5.8-0.1-13.7-0.1-22.8l0.3 0.2h-8l0.3-0.3c0 13.1 0 24.7-0.1 31.9l-0.1-0.1 5.7 0.1 1.6 0.1 0.4 0.1z"/>
	<rect "st4" x="176.1" y="382.1" width="3.3" height="3.3"/>
	<rect "st4" x="181.7" y="382.1" width="3.3" height="3.3"/>
	<rect "st4" x="187.4" y="382.1" width="3.3" height="3.3"/>
	<rect "st4" x="176.1" y="387.8" width="3.3" height="3.3"/>
	<rect "st4" x="181.7" y="387.8" width="3.3" height="3.3"/>
	<rect "st4" x="187.4" y="387.8" width="3.3" height="3.3"/>
	<rect "st4" x="176.1" y="393.5" width="3.3" height="3.3"/>
	<rect "st4" x="181.7" y="393.5" width="3.3" height="3.3"/>
	<rect "st4" x="187.4" y="393.5" width="3.3" height="3.3"/>
	<rect "st4" x="176.1" y="399.3" width="3.3" height="3.3"/>
	<rect "st4" x="181.7" y="399.3" width="3.3" height="3.3"/>
	<rect "st4" x="187.4" y="399.3" width="3.3" height="3.3"/>
	<rect "st4" x="196.2" y="382.1" width="3.3" height="3.3"/>
	<rect "st4" x="196.2" y="387.8" width="3.3" height="3.3"/>
	<rect "st4" x="196.2" y="393.5" width="3.3" height="3.3"/>
	<rect "st4" x="196.2" y="399.3" width="3.3" height="3.3"/>
	<rect "st4" x="182.1" y="404.8" width="3.3" height="5.2"/>
	<path "st4" d="m209.3 410c0 0.1-10.3 0.3-23.1 0.3s-23.1-0.1-23.1-0.3 10.3-0.3 23.1-0.3 23.1 0.1 23.1 0.3z"/>
	<path "st1" d="m167.7 125.6h127.2c3.9 0 7.1 3.2 7.1 7.1v7.1c0 3.9-3.2 7.1-7.1 7.1h-127.2c-3.9 0-7.1-3.2-7.1-7.1v-7.1c0-3.9 3.2-7.1 7.1-7.1z"/>
	<path "st5" d="m291 134.8s0-0.3-0.2-0.7c-0.4-1.5-2-2.4-3.6-2-0.1 0-0.1 0-0.2 0.1-1.5 0.5-2.2 2.1-1.7 3.6s2.1 2.2 3.6 1.7c0.3-0.1 0.5-0.2 0.7-0.4 0.5-0.4 0.9-0.9 1.1-1.6 0.3-0.4 0.3-0.7 0.3-0.7v0.2 0.5c-0.1 0.7-0.5 1.3-1.1 1.7-1.3 1-3.3 0.8-4.3-0.6-1-1.3-0.8-3.3 0.6-4.3 1.1-0.9 2.7-0.9 3.8 0 0.5 0.4 0.9 1 1.1 1.7 0 0.2 0.1 0.4 0 0.6 0 0.2-0.1 0.2-0.1 0.2z"/>
	<path "st5" d="m292.7 139.9c-0.6-0.4-1-0.8-1.4-1.3-0.5-0.4-0.9-1-1.2-1.6 0.6 0.4 1 0.8 1.5 1.3 0.3 0.5 0.8 1 1.1 1.6z"/>
	<path "st5" d="m174.1 135.2h-1.3v-0.5h3.1v0.5h-1.3v3.3h-0.5v-3.3z"/>
	<path "st5" d="m175.9 137.1c0-0.8 0.7-1.5 1.5-1.5s1.5 0.7 1.5 1.5-0.7 1.5-1.5 1.5-1.5-0.6-1.5-1.4v-0.1zm2.5 0c0-0.6-0.4-1-1-1s-1 0.4-1 1 0.4 1 1 1c0.5 0 1-0.4 1-0.9v-0.1z"/>
	<path "st5" d="m179.4 136c0-0.2 0.2-0.4 0.3-0.4 0.2 0 0.4 0.1 0.4 0.3s-0.2 0.4-0.3 0.4c-0.3 0.1-0.4-0.1-0.4-0.3zm0 2.2c0-0.2 0.2-0.4 0.3-0.4 0.2 0 0.4 0.1 0.4 0.3s-0.1 0.4-0.3 0.4c-0.3 0.1-0.4-0.1-0.4-0.3z"/>
	<path "st5" d="m263.2 137.2c0 0.1-16.2 0.3-36.2 0.3s-36.2-0.1-36.2-0.3 16.2-0.3 36.2-0.3 36.2 0.1 36.2 0.3z"/>
	<path "st1" d="m167.7 154.2h127.2c3.9 0 7.1 3.2 7.1 7.1v7.1c0 3.9-3.2 7.1-7.1 7.1h-127.2c-3.9 0-7.1-3.2-7.1-7.1v-7.1c0-3.9 3.2-7.1 7.1-7.1z"/>
	<path "st5" d="m291 164.5s0-0.3-0.2-0.7c-0.2-0.6-0.6-1.2-1.1-1.6-1.2-0.9-3-0.7-3.9 0.6-0.9 1.2-0.7 3 0.6 3.9 1 0.7 2.4 0.7 3.4 0 0.5-0.4 0.9-0.9 1.1-1.5 0.1-0.5 0.1-0.7 0.1-0.7s0 0.1 0 0.2v0.6c-0.1 0.7-0.5 1.3-1.1 1.7-0.8 0.6-1.9 0.8-2.9 0.5-1.6-0.6-2.5-2.3-1.9-3.9 0.3-0.9 1-1.6 1.9-1.9 1-0.4 2.2-0.2 3 0.4 0.5 0.4 0.9 1 1.1 1.7 0 0.2 0.1 0.4 0 0.5 0 0.1-0.1 0.2-0.1 0.2z"/>
	<path "st5" d="m292.7 169.6c-0.5-0.4-1-0.8-1.4-1.3-0.5-0.4-0.9-1-1.2-1.5 0.6 0.4 1 0.8 1.5 1.3 0.3 0.4 0.8 0.9 1.1 1.5z"/>
	<path "st5" d="m173.3 162.3h1.7c1-0.1 2 0.7 2.1 1.7s-0.7 2-1.7 2.1h-0.4-1.6l-0.1-3.8zm1.6 3.3c0.8 0 1.4-0.6 1.4-1.4s-0.6-1.4-1.4-1.4h-1v2.9h1z"/>
	<path "st5" d="m180 164.3v1.7h-0.5v-0.4c-0.2 0.3-0.6 0.4-0.9 0.4-0.6 0-1.1-0.4-1.1-0.9s0.3-0.8 1.2-0.8h0.8v-0.1c0-0.4-0.3-0.7-0.8-0.7-0.3 0-0.7 0.1-0.9 0.3l-0.2-0.4c0.3-0.3 0.8-0.4 1.2-0.4 0.8 0.1 1.2 0.5 1.2 1.3zm-0.5 0.9v-0.4h-0.8c-0.5 0-0.7 0.2-0.7 0.4s0.2 0.5 0.6 0.5 0.8-0.2 0.9-0.5z"/>
	<path "st5" d="m182.6 165.9c-0.2 0.1-0.4 0.2-0.6 0.2-0.4 0.1-0.9-0.3-0.9-0.7v-0.2-1.6h-0.5v-0.4h0.5v-0.6h0.5v0.6h0.8v0.4h-0.8v1.6c0 0.2 0.1 0.4 0.4 0.5h0.1c0.1 0 0.3 0 0.4-0.1l0.1 0.3z"/>
	<path "st5" d="m185.8 164.8h-2.3c0.1 0.5 0.5 0.9 1 0.9 0.3 0 0.6-0.1 0.8-0.4l0.3 0.3c-0.3 0.3-0.7 0.5-1.1 0.5-0.8 0.1-1.5-0.5-1.5-1.3v-0.1c0-0.8 0.6-1.4 1.3-1.5h0.1c0.8 0 1.4 0.6 1.4 1.4v0.1c-0.1-0.1 0 0 0 0.1zm-2.4-0.4h1.9c0-0.5-0.4-0.8-0.9-0.8s-0.9 0.3-1 0.8z"/>
	<path "st5" d="m186.2 163.5c0-0.2 0.2-0.4 0.4-0.4s0.3 0.2 0.3 0.4-0.2 0.3-0.3 0.3c-0.2 0.1-0.4-0.1-0.4-0.3zm0 2.2c0-0.2 0.2-0.4 0.3-0.4 0.2 0 0.4 0.2 0.4 0.3 0 0.2-0.2 0.4-0.3 0.4-0.2 0.1-0.4-0.1-0.4-0.3z"/>
	<path "st5" d="m204.8 164.8c-1.6 0.3-3.2 0.3-4.8 0.3-1.6 0.1-3.2 0-4.8-0.3 1.6-0.3 3.2-0.3 4.8-0.3s3.2 0 4.8 0.3z"/>
	<path "st5" d="m241.2 164.9c0 0.1-6.9 0.3-15.4 0.3s-15.3-0.1-15.3-0.3 6.9-0.3 15.3-0.3 15.4 0.1 15.4 0.3z"/>
	<text "st7 st8" transform="translate(205.82 97.826)">Hostellers</text>
	<text "st7 st9" transform="translate(223.93 209.66)">Hostellers</text>
	<text "st7 st9" transform="translate(223.93 291.97)">Hostellers</text>
	<text "st7 st9" transform="translate(224.9 373.6)">Hostellers</text>
	<path "st10" d="m447.4 203.8h-10.7l-16.2 46.6 24.8 36.7c7.7 1.6 16.6 2.9 22.5-2.3 4.8-4.3 5.7-11.4 5.9-17.9 0.4-10.4 0.2-20.8-0.7-31.1-0.6-7.8-1.7-15.8-5.9-22.4s-12.1-11.5-19.7-9.6"/>
	<path "st5" d="m457.7 287.8c0.3 0 0.6-0.1 0.9-0.2 0.8-0.2 1.6-0.7 2.2-1.3 0.9-1 1.6-2.2 1.9-3.6 0.4-1.8 0.6-3.6 0.6-5.4 0.8-10.5 1-21.1 0.6-31.7-0.1-5.8-0.6-11.6-1.3-17.4-0.6-4.7-1.9-9.3-3.7-13.7-1.3-2.9-2.9-5.7-4.8-8.2-0.7-0.9-1.3-1.6-1.7-2l-0.5-0.5c-0.1-0.1-0.1-0.1-0.1-0.2 0 0 0.1 0 0.2 0.1l0.5 0.5c0.4 0.4 1 1.1 1.8 1.9 2 2.5 3.7 5.3 5 8.2 1.9 4.4 3.2 9 3.8 13.8 0.8 5.8 1.2 11.6 1.4 17.4 0.3 10.6 0.1 21.2-0.8 31.7-0.1 1.8-0.3 3.7-0.7 5.5-0.3 1.4-1 2.6-2 3.6-0.6 0.6-1.4 1.1-2.3 1.3-0.4 0.2-0.7 0.2-1 0.2z"/>
	<path "st5" d="m474 258.7c-1.3 1-3 1.6-4.6 1.7-1.7 0.2-3.4 0-4.9-0.8 1.6 0.2 3.2 0.3 4.8 0.2 1.6-0.2 3.2-0.6 4.7-1.1z"/>
	<path "st5" d="m473.4 235.6c-1.4 1-3 1.6-4.7 1.8-1.7 0.4-3.4 0.3-5.1-0.1 0-0.2 2.3 0.1 5-0.4s4.7-1.4 4.8-1.3z"/>
	<path "st5" d="m448.4 203.6s-1.3-5.2 1.1-5.6 9.6 2.8 8.5 5.6c-0.6 1.6-1.4 3.2-2.4 4.6l-1-1.4s1.7-2.1 1.5-3.5-4.9-3.9-5.6-2.5c-0.4 0.9-0.7 1.8-0.7 2.8h-1.4z"/>
	<path "st11" d="m360.1 210.2-42.7 0.8-6.9-0.6s-15.6-0.4-17.1-0.7c-1.7-0.3-2.3 0.5-2.3 1.1-0.1 1 1 1.9 2.5 2.2 0.5 0.1 8.6 1.3 8.6 1.3l-2.4 1.2c-1.7 1-3 3.6-3.4 6.6s-0.2 3.8 0.9 3.9c0.4 0 0.9-0.1 1.2-0.4 0.6-0.6 1-1.3 1.1-2.1 1-5.5 3.1-5.2 3.1-5.2h1s-2.5 2.6-2 5c0.1 0.4 0.2 0.7 0.4 1-0.3 2 1 3.9 3 4.2 0.6 0.1 1.3 0 1.9-0.2s1.2-0.7 1.1-1.3c0-0.3-0.2-0.6-0.4-0.9-0.1-0.1-0.2-0.3-0.2-0.5l2.6-0.1s5.7-0.6 8.3-0.6l40.1 1.3c5.7 0.6 11.9-0.6 12.4-6.3 0.5-6.3-4.5-10.1-10.8-9.7z"/>
	<path "st11" d="m316.6 212.2c0 0.9-0.6 1.7-1.5 2-0.8 0.4-1.7 0.4-2.6 0.7-2.5 0.8-4.1 3.6-6.7 4.3-0.4 0.1-0.8 0.1-1-0.2s0.1-0.7 0.3-0.9l5.4-7"/>
	<path "st12" d="m310.6 211.1c-0.3 0.2-0.5 0.4-0.7 0.7-0.4 0.5-1 1.2-1.6 2l-2.4 3-0.7 0.9c-0.3 0.3-0.5 0.7-0.5 1.2 0 0.3 0.3 0.5 0.6 0.6 0.2 0.1 0.5 0.1 0.7 0 0.4-0.1 0.8-0.3 1.2-0.5 1.3-0.9 2.6-1.8 3.8-2.9 0.5-0.4 1.1-0.8 1.7-1s1.2-0.3 1.7-0.4c0.9-0.1 1.7-0.7 2.2-1.5 0.2-0.3 0.2-0.7 0.1-1 0 0.3-0.1 0.6-0.3 0.9-0.5 0.7-1.3 1.1-2.1 1.2-0.6 0.1-1.2 0.2-1.8 0.4-0.7 0.2-1.3 0.6-1.9 1-1.2 1-2.4 2-3.7 2.8-0.3 0.2-0.7 0.3-1.1 0.4s-0.7 0-0.7-0.2 0.2-0.5 0.4-0.8l0.7-0.9 2.3-3.1c0.6-0.9 1.2-1.6 1.5-2.1 0.3-0.2 0.4-0.4 0.6-0.7z"/>
	<path "st12" d="m303.7 218.3c-0.6 0-1.1 0.1-1.6 0.3-0.5 0.3-1 0.7-1.2 1.2-0.3 0.7-0.5 1.4-0.6 2.1-0.1 0.8-0.3 1.5-0.6 2.3-0.2 0.6-0.6 1.2-1.1 1.6-0.4 0.3-0.8 0.4-1.3 0.3-0.3-0.1-0.4-0.2-0.4-0.2s0.2 0 0.5 0.1c0.4 0.1 0.8-0.1 1.1-0.3 0.5-0.4 0.8-0.9 1-1.5 0.2-0.7 0.4-1.5 0.5-2.2 0.1-0.8 0.4-1.5 0.7-2.2 0.3-0.6 0.8-1 1.4-1.3 0.4-0.2 0.8-0.2 1.3-0.2 0.1-0.1 0.3 0 0.3 0z"/>
	<path "st12" d="m293 212.9c0.5 0 1.1 0.1 1.6 0.2l7.8 1.2c0.5 0.1 1.1 0.1 1.6 0.3-0.5 0.1-1.1 0-1.6-0.1-1-0.1-2.4-0.2-3.9-0.5s-2.9-0.5-3.9-0.7c-0.6 0-1.1-0.2-1.6-0.4z"/>
	<path "st12" d="m305.2 220.4c-0.1 0.2-0.2 0.3-0.3 0.4-0.3 0.4-0.4 0.8-0.2 1.2 0.1 0.3 0.3 0.5 0.6 0.5 0.3 0.1 0.7 0.1 1.1 0.1s0.9 0.1 1.2 0.4 0.5 0.8 0.5 1.3c-0.1 0.5-0.3 0.9-0.8 1.2-0.4 0.3-0.8 0.4-1.2 0.4-0.7 0-1.4-0.1-2.1-0.4-0.5-0.1-0.9-0.3-1.3-0.6-0.1-0.1-0.3-0.2-0.3-0.4 0 0 0.1 0.1 0.4 0.3 0.4 0.2 0.8 0.4 1.3 0.5 0.7 0.2 1.3 0.3 2 0.3 0.8 0 1.5-0.6 1.6-1.4 0.1-0.4-0.1-0.8-0.3-1.1-0.3-0.2-0.6-0.3-1-0.3s-0.8 0-1.1-0.1c-0.4-0.1-0.6-0.4-0.8-0.7-0.1-0.5 0-1 0.4-1.4 0.2-0.1 0.3-0.2 0.3-0.2z"/>
	<path "st12" d="m307.1 225.4c0.2 0 0.3 0 0.5 0.1 0.4 0.2 0.6 0.6 0.7 1.1 0 0.7-0.3 1.3-0.8 1.7-0.7 0.4-1.5 0.6-2.3 0.5s-1.5-0.5-2-1c-0.5-0.4-0.8-1-0.9-1.6-0.1-0.4-0.1-0.8-0.1-1.3 0-0.3 0.1-0.4 0.1-0.4 0 0.6 0.1 1.1 0.2 1.6 0.2 0.6 0.5 1.1 0.9 1.5 0.5 0.5 1.2 0.8 1.9 0.9s1.4 0 2-0.4c0.5-0.3 0.8-0.8 0.8-1.4 0-0.4-0.2-0.8-0.5-1-0.4-0.2-0.5-0.2-0.5-0.3z"/>
	<path "st12" d="m313.4 220.7s0-0.3 0.1-0.8c0.2-0.6 0.7-1.2 1.3-1.5v0.3c-0.4-0.1-0.7-0.2-1.1-0.3-1.2-0.4-2.3-1.2-3.1-2.2 1 0.7 2.1 1.4 3.2 1.9 0.3 0.1 0.7 0.3 1 0.4l0.4 0.1-0.3 0.2c-0.5 0.3-1 0.8-1.3 1.3l-0.2 0.6z"/>
	<path "st12" d="m299.5 218.7c0-0.1 0.6 0.3 0.8 1.1s-0.1 1.4-0.1 1.3 0-0.6-0.2-1.2-0.5-1.1-0.5-1.2z"/>
	<path "st6" d="m392.4 183.2c-0.7 0.9-29.9 24.1-33.5 25s-37 1.5-37 1.5-2.6 20.5-1.8 21.9c3.2 5.1 41.3 18.7 59.5 0.3l12.7-46.5"/>
	<path "st5" d="m355.7 220.7c-0.2-0.6-0.3-1.2-0.4-1.8-0.2-3 0.3-6 1.7-8.6 0.2-0.6 0.6-1.1 1-1.5-0.8 1.9-1.4 3.8-1.9 5.8-0.3 2-0.4 4.1-0.4 6.1z"/>
	<path "st5" d="m358.9 221.5c-0.2-0.6-0.4-1.3-0.4-2-0.4-3.2-0.5-6.4-0.2-9.6 0-0.7 0.1-1.4 0.3-2 0.1 0-0.1 3 0 6.8s0.4 6.8 0.3 6.8z"/>
		<g "st13">
			<path d="m357.9 208.8c-4.9 4.3-6.8 11.2-4.8 17.4 0.3 0.9 0.9 2 1.8 2.1s1.8-0.4 2.2-1.2 0.5-1.7 0.5-2.6l0.8-16"/>
		</g>
	<polygon "st5" points="392.6 186.9 393.4 181.9 387.1 187.4 384 198.1"/>
	<path "st6" d="m399.3 176.9-4.4 2.4-14 23.6 0.1 12.3s-3.3 8.6-3.5 15.6 0 32.3 0 32.3l-17.8 117.5 15.1 4.9 30-136.8v-73.7l-5.5 1.9z"/>
		<g "st13">
			<path d="m374.9 385.4-12-3.9 17.1-127.4s-2.9-18.7 0-26.9 7.3-20.2 7.3-20.2l-5 22.8c0.6 17.1-0.4 37.5-2.2 59.5h4.6l-9.8 96.1z"/>
		</g>
	<path "st5" d="m389.1 189.1c-0.1 0.2-0.2 0.4-0.4 0.6-0.2 0.4-0.6 1-1.1 1.8-1.3 2.2-2.4 4.4-3.4 6.8-1.4 3.5-2.5 7-3.4 10.7-1 4.5-1.8 9-2.2 13.5-0.5 4.9-0.9 9.5-1 13.7s-0.1 8-0.1 11.2 0 5.7 0 7.6v2.1 0.7c0-0.2-0.1-0.5-0.1-0.7 0-0.5 0-1.2-0.1-2.1 0-1.9-0.1-4.4-0.2-7.6s-0.1-7 0-11.2 0.5-8.9 1-13.7c0.5-4.6 1.3-9.1 2.3-13.6 0.9-3.7 2.1-7.2 3.5-10.7 1-2.3 2.2-4.6 3.5-6.7 0.5-0.8 0.9-1.3 1.2-1.7 0.2-0.3 0.3-0.5 0.5-0.7z"/>
		<g "st13">
			<path d="m370.5 238c1.5-7 4.1-13.8 7.6-20 0 4.5-0.3 9-0.8 13.5 0 1-0.3 1.9-0.9 2.7-0.5 0.5-1 0.9-1.6 1.2l-4.6 2.6"/>
		</g>
	<path "st5" d="m433.7 142.3c1.1-2.6 3.1-4.8 5.6-6.2s5.6-1.4 8.2-0.1c2.6 1.4 3.9 4.3 3.4 7.2 4.6 2.3 6.4 7.8 4.2 12.4-2.3 4.6-7.8 6.4-12.4 4.2 2.3 3.1 0.3 8.1-3.3 9.4s-7.9-0.9-9.7-4.3-1.5-7.6 0.1-11.2"/>
	<path "st6" d="m432.1 144.2c0.6-1.3 1.8-2.3 3.2-2.5 1.5-0.2 2.8 0.7 3.4 2 0.5 1.4-0.1 2.9-1.5 3.5 1.9 0.9 2.8 3.2 1.9 5.1-0.6 1.4-2 2.3-3.5 2.3 1 1.7 0.4 3.9-1.3 4.9-1.3 0.7-2.8 0.6-4-0.3-1-0.8-1.6-2-1.6-3.3-0.1-1.3 0-2.5 0.2-3.8 0.3-1.9 0.6-3.8 0.9-5.6 0.1-0.8 0.3-1.7 0.7-2.4 0.4-0.8 1.2-1.2 2.1-1.1"/>
	<path "st5" d="m386.4 128.8c-1.4-2.4-0.5-5.7 1.5-7.6 2.1-1.8 4.9-2.7 7.7-2.6 2.8 0.2 5.5 0.8 8.1 1.7 3-3.9 8.6-4.6 12.4-1.6 1.5 1.2 2.6 2.8 3.1 4.6 2.9-1.1 6.2 0.3 7.3 3.2 0.4 1.1 0.5 2.2 0.3 3.3l-11.8 5.9-10.4 25.3c-4.1 4.4-11 4.6-15.3 0.5-3.5-3.3-4.5-8.5-2.3-12.8-0.8-0.6-1.6-1.3-2.2-2.1-2.3-1-4.2-2.9-5.1-5.3-1.7-5.3 1.2-10.9 6.5-12.6 0.1 0.1 0.1 0.1 0.2 0.1z"/>
	<path "st11" d="m400.9 177c0.3-3.9 0.5-6.7 0.5-6.6s-7.6-1.9-8.4-12.1c-0.4-5.1 0.5-13.3 1.5-20 0.9-6 5.5-13.1 11.4-12l18.4 6.2c1.8 0.3 2.3 1.9 2.1 3.8l0.1 0.9-3.2 28.8-1.2 12.9c-0.6 5.5-5.2 9.6-10.7 9.5-5.9-0.1-10.6-5-10.5-10.8v-0.6z"/>
	<path "st5" d="m396.3 146.3c-0.1 0.7 0.5 1.3 1.1 1.4 0.7 0.1 1.3-0.4 1.4-1 0.1-0.7-0.4-1.3-1.1-1.4-0.7-0.2-1.3 0.3-1.4 1z"/>
	<path "st5" d="m396.1 143.8c0.1 0.2 1.2-0.5 2.6-0.4s2.4 0.9 2.5 0.7-0.1-0.4-0.5-0.8c-0.6-0.5-1.3-0.7-2-0.8s-1.4 0.1-2.1 0.5c-0.5 0.4-0.6 0.7-0.5 0.8z"/>
	<path "st5" d="m408.9 147.3c-0.1 0.7 0.5 1.3 1.1 1.4 0.7 0.1 1.3-0.4 1.4-1 0.1-0.7-0.4-1.3-1.1-1.4-0.6-0.2-1.3 0.3-1.4 1z"/>
	<path "st5" d="m409.4 144.6c0.1 0.2 1.2-0.5 2.6-0.4s2.4 0.9 2.5 0.7-0.1-0.4-0.5-0.7c-0.6-0.5-1.3-0.7-2-0.8s-1.5 0.1-2.1 0.5c-0.4 0.3-0.6 0.6-0.5 0.7z"/>
	<path "st5" d="m403.6 154c-0.7-0.3-1.5-0.5-2.2-0.6-0.4-0.1-0.7-0.2-0.7-0.4 0-0.4 0.1-0.7 0.3-1l1.3-2.6c1.8-3.7 3.1-6.8 2.9-6.9s-1.7 2.9-3.5 6.6l-1.2 2.6c-0.3 0.4-0.4 0.9-0.3 1.4 0.1 0.3 0.3 0.5 0.5 0.6s0.4 0.1 0.6 0.1c0.8 0.2 1.5 0.2 2.3 0.2z"/>
	<path "st12" d="m401.3 170.4c4.7 0.4 9.5-0.4 13.8-2.5 0 0-4 6.8-14 5.1l0.2-2.6z"/>
	<path "st5" d="m409.6 140.8c0.1 0.4 1.5 0.2 3.2 0.4s3 0.6 3.2 0.3c0.1-0.2-0.1-0.5-0.7-0.9-0.7-0.5-1.5-0.7-2.4-0.8-0.8-0.1-1.7 0-2.5 0.3-0.5 0.2-0.8 0.5-0.8 0.7z"/>
	<path "st5" d="m396.3 141.1c0.3 0.3 1.4 0.1 2.8 0.2s2.5 0.4 2.8 0.1c0.1-0.1 0-0.5-0.5-0.8-0.7-0.4-1.4-0.7-2.2-0.7-0.8-0.1-1.6 0.1-2.3 0.5-0.5 0.2-0.7 0.5-0.6 0.7z"/>
	<path "st5" d="m419.1 126.6c-0.3 3.8-3.6 6.7-7.4 6.4-0.4 0-0.8-0.1-1.3-0.2-1.5-0.4-3.1-1.3-4.5-0.6s-1.7 2.9-3 3.9c-1.9 1.4-4.6-0.3-6.9 0.2-1.8 0.4-3 2-4.3 3.3s-3.1 2.5-4.8 1.9c0.2-1.6 0.5-3.1 1-4.6s1.6-2.8 2.9-3.6c0.8-0.4 1.6-0.6 2.3-1.1 1.5-1.1 2-3.1 3-4.6 1.4-2 3.6-3.3 6-3.4 2-0.1 4 0.7 6 0.4 1.5-0.2 2.8-1.1 4.2-1.2 2.9-0.3 5.3 1.9 7.2 4.1"/>
	<path "st5" d="m409.8 129.9c1.3-0.3 3.9-0.9 4.7-1.9 1.6-2.3 4.2-3.6 7-3.3 2.8 0.4 5 2.7 5.4 5.5 3.3 0.4 6.2 2.6 7.5 5.7 1.3 3.3 0.9 6.9-1 9.9-0.5 0.7-0.9 1.5-1.2 2.3 0.7 0.7 1.4 1.4 1.9 2.2 2.7 4.3-2.8 6.8-2.8 6.8 0.4 3.1-2.5 3.4-4.3 3.7s-2.2 5.2-3.7 5.2l-0.5-15.3c-0.2 0.1-0.4 0.2-0.7 0.2-3.4 0.5-3.4-6.1-2.5-8-1.2-1.1-2.2-2.4-3.1-3.8-0.9-2.2-1.3-4.6-1-7-1.2 0.1-6.3-2-5.7-2.2z"/>
	<path "st11" d="m422.4 151.6c0.2-1.6 1.7-2.8 3.4-2.6 0.4 0.1 0.8 0.2 1.1 0.4 1 0.7 1.7 1.9 1.4 4.2-0.7 6.1-6.6 4.1-6.6 3.9s0.4-3.4 0.7-5.9z"/>
	<path "st12" d="m423.8 155.5s0.1 0.1 0.3 0.2 0.5 0.2 0.8 0.1c0.9-0.4 1.4-1.2 1.5-2.2 0.1-0.5 0-1-0.1-1.6-0.1-0.4-0.3-0.7-0.7-0.9-0.2-0.1-0.5 0-0.6 0.2s-0.1 0.3-0.1 0.3-0.1-0.1 0-0.4c0-0.1 0.1-0.3 0.3-0.4s0.4-0.1 0.6-0.1c0.5 0.2 0.9 0.6 1 1.1 0.2 0.6 0.3 1.1 0.2 1.7-0.1 1.1-0.8 2.1-1.9 2.4-0.3 0.1-0.7 0-1-0.3-0.3 0-0.3-0.1-0.3-0.1z"/>
	<path "st10" d="m389.9 147.5s-0.6-0.3-1.4-1.2c-1.2-1.2-2.1-2.7-2.5-4.3-0.3-1.1-0.3-2.3-0.1-3.4 0.2-1.3 0.8-2.5 1.7-3.5 2-2.3 5.2-3.3 8.2-2.7 0.3 0.1 0.6 0.1 0.8 0.2 0.3 0.1 0.5 0.2 0.8 0.3l0.4 0.2v-0.4c-0.1-0.7 0.1-1.4 0.5-2s0.9-1.1 1.5-1.4c1.2-0.7 2.5-1 3.9-0.8 2.6 0.2 4.9 1.1 6.9 1.1 1.6 0.1 3.2-0.5 4.4-1.5 0.3-0.3 0.6-0.6 0.8-1 0.1-0.1 0.1-0.3 0.1-0.4-0.3 0.5-0.6 0.9-1 1.3-1.2 0.9-2.8 1.4-4.3 1.3-1.1-0.1-2.1-0.2-3.2-0.5-1.2-0.3-2.5-0.6-3.7-0.7-0.7-0.1-1.4 0-2.1 0.1s-1.4 0.4-2.1 0.8-1.3 0.9-1.7 1.6c-0.5 0.7-0.7 1.5-0.6 2.3l0.3-0.2-0.8-0.3c-0.3-0.1-0.6-0.2-0.9-0.2-3.2-0.7-6.5 0.4-8.6 2.9-0.9 1.1-1.5 2.4-1.7 3.7-0.2 1.2-0.1 2.4 0.2 3.6 0.4 1.7 1.3 3.2 2.6 4.4 0.3 0.3 0.7 0.6 1.1 0.8 0.2-0.2 0.3-0.2 0.5-0.1z"/>
	<path "st10" d="m388.4 126.7c0.5-0.4 1.2-0.7 1.8-0.9 0.7-0.2 1.5-0.2 2.3-0.1 1 0.2 1.9 0.7 2.5 1.4l0.3 0.3 0.1-0.4c0.7-2.4 2.6-4.2 5-4.8 1.9-0.3 3.8 0 5.5 0.8 1.4 0.7 3 1.3 4.5 1.7 1.1 0.3 2.2 0.3 3.3 0 0.3-0.1 0.6-0.2 0.8-0.3s0.3-0.2 0.2-0.2-0.4 0.2-1.1 0.3c-1 0.2-2.1 0.2-3.1-0.1-1.5-0.4-3-1-4.4-1.7-0.9-0.4-1.8-0.7-2.7-0.9-1-0.2-2.1-0.2-3.1 0-2.6 0.6-4.6 2.6-5.3 5.2l0.4-0.1c-0.7-0.8-1.7-1.3-2.8-1.4-0.8-0.1-1.6-0.1-2.4 0.2-0.5 0.2-0.9 0.4-1.4 0.7-0.1 0.1-0.2 0.2-0.4 0.3z"/>
	<path "st6" d="m404.5 157c0.4-0.4 1-0.7 1.5-0.7 0.7 0.1 1.3 0.4 1.7 0.9l0.1 0.1c0.2 0.2 0.2 0.4 0.3 0.7 0 0.6-0.3 1.1-0.8 1.4-0.7 0.5-1.7 0.5-2.4 0-0.8-0.6-1-1.7-0.4-2.4z"/>
	<path "st5" d="m408.1 155.8c-0.1 0-0.2 0.3-0.5 0.7-0.8 1.1-2.1 1.7-3.5 1.3-0.5-0.1-0.8-0.3-0.9-0.2s0.2 0.3 0.7 0.6c1.5 0.6 3.2-0.1 3.9-1.5 0.3-0.5 0.3-0.9 0.3-0.9z"/>
	<path "st5" d="m431.4 139.1c0.1-0.1 0.2-0.1 0.3-0.2 0.2-0.2 0.5-0.4 0.7-0.7 0.8-0.9 1.4-2 1.6-3.1 0.2-0.8 0.2-1.7 0-2.5-0.2-0.9-0.7-1.8-1.4-2.5-0.8-0.8-1.8-1.2-2.9-1.2-1.2 0-2.3 0.5-3 1.4l0.3 0.1v-0.1c0.8-2.1 0.7-4.3-0.2-6.3-0.8-1.7-2.3-2.8-4.1-3.1-1.2-0.1-2.4 0.2-3.4 1-0.2 0.2-0.5 0.4-0.6 0.7-0.1 0.1-0.1 0.2-0.2 0.3l0.9-0.9c0.9-0.7 2.1-1 3.3-0.8 1.7 0.3 3.1 1.4 3.9 3 0.8 1.9 0.9 4.1 0.1 6.1v0.1l-0.3 0.9 0.6-0.8c0.7-0.8 1.7-1.3 2.8-1.3 1 0 2 0.4 2.7 1.1 0.6 0.6 1.1 1.4 1.3 2.3 0.2 0.8 0.2 1.6 0 2.3-0.2 1.1-0.8 2.2-1.5 3.1-0.5 0.8-0.9 1.1-0.9 1.1z"/>
	<path "st5" d="m441.5 159 0.2 0.1 0.5 0.2c0.4 0.1 1.1 0.4 1.9 0.6 1 0.3 2.1 0.6 3.1 0.8 1.4 0.3 2.8 0.3 4.2 0.2 1.7-0.2 3.4-0.8 4.8-1.8 1.6-1.2 2.6-3 2.9-5 0.3-2.2-0.1-4.4-1-6.4-0.5-1.1-1.1-2-2-2.8s-2.1-1.3-3.3-1.3c-0.9 0-1.7 0.3-2.5 0.8l0.2 0.2c0.8-0.9 1.3-1.9 1.6-3s0.3-2.2 0.1-3.2c-0.3-2.1-1.5-3.9-3.3-5-1.6-1-3.4-1.5-5.3-1.3-1.6 0.1-3.1 0.7-4.4 1.7-1 0.8-1.9 1.8-2.5 3-0.5 0.9-0.8 1.8-1 2.8-0.1 0.6-0.2 1.2-0.2 1.8v0.5s0 0.2 0 0.2c0-0.8 0.1-1.7 0.2-2.5 0.2-0.9 0.5-1.9 1-2.7 0.6-1.1 1.5-2.1 2.5-2.9 1.2-0.9 2.7-1.5 4.3-1.6 1.8-0.1 3.6 0.3 5.1 1.3 1.7 1.1 2.8 2.8 3.1 4.8 0.2 1 0.1 2.1-0.1 3.1-0.3 1-0.8 2-1.5 2.8l0.2 0.2c0.6-0.5 1.4-0.7 2.2-0.7 1.2 0 2.3 0.4 3.1 1.2 0.9 0.7 1.5 1.7 2 2.7 0.9 1.9 1.3 4.1 1 6.2-0.2 1.9-1.2 3.7-2.8 4.9-1.4 1-3 1.6-4.6 1.8-1.4 0.2-2.8 0.1-4.2-0.1-1-0.2-2.1-0.4-3.1-0.7l-1.9-0.6-0.5-0.1v-0.2z"/>
	<path "st5" d="m432.2 168.7c0.2 0.2 0.5 0.3 0.7 0.4 0.7 0.4 1.4 0.7 2.1 1 1.1 0.4 2.2 0.6 3.4 0.6 1.4 0 2.8-0.6 3.9-1.5 0.5-0.5 1-1.1 1.2-1.9 0.2-0.6 0.3-1.3 0.4-2 0-1.2-0.3-2.3-0.7-3.4-0.3-0.7-0.6-1.4-1-2.1-0.1-0.3-0.3-0.5-0.5-0.7 0.1 0.3 0.2 0.5 0.3 0.8 0.2 0.5 0.6 1.2 0.9 2.1 0.4 1 0.6 2.2 0.6 3.3 0 1.4-0.5 2.7-1.5 3.6s-2.3 1.4-3.7 1.5c-1.1 0-2.2-0.1-3.3-0.5-1.7-0.7-2.7-1.3-2.8-1.2z"/>
	<path "st5" d="m429 172.6c-0.3 0-0.5-0.2-0.8-0.3-0.6-0.5-0.9-1.2-0.8-2 0-0.5 0.3-1 0.7-1.3 0.5-0.4 1.1-0.4 1.5 0 0.2 0.2 0.3 0.5 0.4 0.8 0 0.3-0.2 0.6-0.4 0.7-0.3 0.2-0.6 0.2-1 0.1-0.4 0-0.7-0.2-1-0.4-1.1-0.8-1.8-2.1-1.9-3.5 0-1.1 0.2-2.3 0.6-3.4 0.2-0.7 0.6-1.4 1-2.1 0.2-0.2 0.4-0.3 0.7-0.3h-0.2c-0.2 0-0.4 0.1-0.6 0.3s-0.4 0.5-0.6 0.8l-0.6 1.2c-0.5 1.1-0.7 2.3-0.7 3.4 0 0.7 0.2 1.4 0.5 2 0.3 0.7 0.8 1.3 1.5 1.7 0.7 0.5 1.5 0.6 2.3 0.2 0.4-0.2 0.6-0.6 0.6-1s-0.2-0.7-0.5-1c-0.3-0.2-0.6-0.4-1-0.3-0.3 0-0.6 0.1-0.9 0.3-0.5 0.4-0.7 0.9-0.8 1.5-0.1 0.8 0.3 1.6 1 2.1 0.2 0.1 0.4 0.2 0.6 0.2 0.3 0.3 0.4 0.3 0.4 0.3z"/>
	<path "st10" d="m449.9 159.4h0.3c0.3 0 0.5 0 0.8-0.1 0.9-0.3 1.7-1.1 2-2 0.4-1.5 0-3-1.1-4.1-1.3-1.3-3-2-4.8-1.9-0.4 0-0.8 0.1-1.2 0.2l0.2 0.2c0.5-1.6 0.2-3.4-0.9-4.6-0.5-0.5-1-1-1.7-1.2-0.6-0.2-1.2-0.3-1.8-0.3-0.9 0-1.7 0.3-2.5 0.7-0.2 0.1-0.4 0.3-0.6 0.4l-0.2 0.2s0.3-0.2 0.8-0.5c1.3-0.7 2.8-0.8 4.1-0.3 0.6 0.3 1.2 0.7 1.6 1.2 1 1.2 1.3 2.9 0.8 4.4l-0.1 0.3 0.3-0.1c0.4-0.1 0.8-0.2 1.2-0.2 1.7-0.1 3.4 0.5 4.6 1.8 1 1 1.4 2.4 1.1 3.8-0.3 0.9-0.9 1.6-1.8 2-0.4 0.1-0.7 0.1-1.1 0.1z"/>
	<path "st10" d="m450.6 140.8c-0.1-0.1-0.3-0.1-0.4-0.2-0.4-0.1-0.8-0.1-1.2-0.1-0.6 0.1-1.2 0.3-1.8 0.6-0.7 0.4-1.2 1.1-1.5 1.8l0.3-0.1c-0.5-0.5-1.2-0.9-1.9-1-1.1-0.1-2.1 0.1-3 0.7-0.7 0.5-1.3 1.1-1.8 1.8-0.3 0.5-0.6 0.9-0.9 1.4l-0.3 0.6s0.5-0.8 1.3-1.9c0.5-0.6 1.1-1.2 1.8-1.7 0.8-0.5 1.8-0.8 2.8-0.6 0.7 0.1 1.3 0.4 1.7 0.9l0.2 0.2 0.1-0.2c0.3-0.7 0.8-1.3 1.4-1.7 0.5-0.3 1.1-0.6 1.6-0.6 0.6 0 1.1 0 1.6 0.1z"/>
	<path "st5" d="m423.2 171.2-22.6 3.2-1 7.1s-11.2 19.7-12.2 25.4-6 20-5 30.8-2.3 51.5-2.3 51.5h5.8l22.1-54.2 15.2-63.8z"/>
	<path "st6" d="m438.8 433.1 5.7 20.5s-19.3 11.2-18.6 15.1l40.6-8.1-7.5-32.4-20.2 4.9z"/>
		<g "st14">
			<path "st4" d="m456.5 448.9c0.9 0.1 1.5 0.8 1.6 1.6 0 0.9-0.7 1.6-1.6 1.6-0.9-0.1-1.6-0.8-1.7-1.7 0.1-0.9 0.9-1.5 1.8-1.5"/>
		</g>
		<g "st14">
			<path "st4" d="m466.4 460.6-0.8-3.3-38.9 9.1c-0.8 0.6-1.1 1.5-1 2.5l40.7-8.3z"/>
		</g>
	<path "st5" d="m443.8 453.6c0.1 0.2 1.1 0 2.2 0.5s1.8 1.1 2 1-0.4-1.2-1.8-1.6-2.5-0.1-2.4 0.1z"/>
	<path "st5" d="m440 456.4c0 0.2 0.9 0.3 1.8 1s1.3 1.5 1.5 1.5 0-1.2-1-2-2.4-0.7-2.3-0.5z"/>
	<path "st5" d="m438.8 462c0.2 0 0.2-1-0.5-2s-1.8-1.2-1.8-1 0.7 0.6 1.3 1.4 0.8 1.6 1 1.6z"/>
	<path "st5" d="m443 448.8c0.1 0.2 1-0.3 2.1-0.5s2.1 0 2.1-0.2-0.9-0.7-2.3-0.5-2 1-1.9 1.2z"/>
		<g "st13">
			<polygon points="439.9 437.2 440.9 440.8 460.6 435.9 459.9 432.6"/>
		</g>
	<path "st5" d="m441.9 444.6c0.7 0 1.4-0.1 2-0.5 0.7-0.3 1.3-0.7 2-1.1 0.4-0.3 0.7-0.6 1-0.9 0.2-0.2 0.4-0.4 0.5-0.6 0.2-0.4 0.1-0.8-0.2-1.1-0.3-0.2-0.6-0.3-1-0.2-0.3 0.1-0.5 0.2-0.7 0.3-0.4 0.2-0.8 0.5-1.1 0.7-0.6 0.5-1.1 1-1.6 1.7-0.7 1.1-0.9 1.9-0.8 1.9s0.4-0.7 1.2-1.6c0.5-0.5 1-1 1.6-1.4 0.3-0.2 0.7-0.5 1.1-0.6 0.4-0.2 0.8-0.3 0.9-0.1s0.1 0.1 0 0.2c-0.1 0.2-0.2 0.3-0.4 0.5l-0.9 0.9c-0.5 0.5-1.1 0.9-1.8 1.2-0.7 0-1.2 0.4-1.8 0.7z"/>
	<path "st5" d="m442.2 444.8c0.2-0.7 0.3-1.4 0.1-2.1-0.1-0.8-0.4-1.5-0.8-2.1-0.2-0.4-0.5-0.8-0.8-1.1-0.3-0.5-0.9-0.8-1.5-0.7-0.4 0.1-0.6 0.4-0.7 0.8v0.8c0 0.5 0.1 0.9 0.3 1.4 0.3 0.7 0.8 1.4 1.4 1.9 1 0.9 1.9 0.9 1.9 0.8s-0.7-0.3-1.6-1.2c-0.5-0.5-0.9-1.1-1.1-1.7-0.1-0.4-0.2-0.8-0.2-1.2 0-0.5 0-0.8 0.2-0.8s0.6 0.2 0.9 0.5 0.5 0.6 0.8 1c0.4 0.6 0.7 1.2 0.9 1.9 0.2 1 0.1 1.8 0.2 1.8z"/>
	<path "st6" d="m379.5 431.9-2.5 21.1s-22.1 3-22.9 6.9l40.6 7.9 5.3-32.8-20.5-3.1z"/>
		<g "st14">
			<path "st4" d="m389.9 453.2c0.8 0.4 1.1 1.3 0.9 2.1-0.3 0.8-1.3 1.2-2.1 0.9-0.8-0.4-1.2-1.4-0.9-2.2 0.4-0.8 1.4-1.1 2.2-0.7"/>
		</g>
		<g "st14">
			<path "st4" d="m394.6 467.8 0.5-3.3-39.5-6.2c-0.9 0.3-1.7 1-1.9 1.9l40.9 7.6z"/>
		</g>
	<path "st5" d="m376.4 452.7c0 0.2 1 0.4 1.8 1.2s1.3 1.7 1.5 1.7 0.1-1.2-1-2.2-2.3-0.9-2.3-0.7z"/>
	<path "st5" d="m371.8 453.8c-0.1 0.2 0.7 0.7 1.3 1.6s0.6 1.9 0.8 1.9 0.5-1.1-0.2-2.3-1.9-1.4-1.9-1.2z"/>
	<path "st5" d="m368.6 458.6c0.2 0.1 0.6-0.9 0.3-2s-1.2-1.8-1.3-1.6 0.4 0.8 0.6 1.8 0.2 1.7 0.4 1.8z"/>
	<path "st5" d="m377.5 448c0.1 0.2 1 0.1 2.1 0.3s1.9 0.7 2.1 0.6-0.6-1-1.9-1.3-2.4 0.2-2.3 0.4z"/>
		<g "st13">
			<polygon points="379 436 378.6 439.8 398.7 442.8 399.2 439.4"/>
		</g>
	<path "st5" d="m378.1 443.7c0.6 0.3 1.4 0.4 2 0.3 0.8 0 1.5-0.1 2.2-0.3 0.4-0.1 0.9-0.3 1.3-0.4 0.3-0.1 0.5-0.2 0.7-0.4 0.3-0.3 0.4-0.7 0.2-1s-0.5-0.5-0.8-0.6h-0.8c-0.5 0-0.9 0.1-1.3 0.2-0.7 0.2-1.4 0.5-2.1 0.9-1.1 0.7-1.5 1.4-1.5 1.5s0.6-0.5 1.7-1c0.6-0.3 1.3-0.6 2-0.7 0.4-0.1 0.8-0.2 1.2-0.2 0.5 0 0.8 0 0.9 0.2s0 0.1-0.1 0.2c-0.2 0.1-0.3 0.2-0.5 0.3-0.4 0.2-0.8 0.3-1.2 0.5-0.7 0.2-1.4 0.4-2.1 0.5-0.5-0.2-1.2-0.1-1.8 0z"/>
	<path "st5" d="m378.3 444c0.1 0 0.6-0.6 0.9-1.9 0.2-0.8 0.2-1.5 0.1-2.3-0.1-0.5-0.2-0.9-0.3-1.3-0.1-0.6-0.6-1.1-1.1-1.2-0.4-0.1-0.8 0.1-1 0.4-0.1 0.2-0.2 0.5-0.3 0.7-0.1 0.4-0.2 0.9-0.2 1.4 0 0.8 0.2 1.6 0.5 2.2 0.6 1.2 1.4 1.5 1.5 1.5s-0.5-0.6-1-1.7c-0.3-0.6-0.4-1.3-0.4-2 0-0.4 0.1-0.8 0.2-1.2s0.4-0.8 0.5-0.7 0.5 0.4 0.6 0.8 0.3 0.8 0.3 1.2c0.1 0.7 0.2 1.4 0.1 2.1-0.2 1.3-0.5 2-0.4 2z"/>
	<path "st5" d="m410.2 369.2c0 0.8-9.3 73.4-9.3 73.4l-27-5.1 10.9-74.9 25.4 6.6z"/>
	<path "st5" d="m443 361.4c0.2 0.7 19 74 19 74l-25.7 5.9-22-78.9 28.7-1z"/>
	<path "st6" d="m418.9 173.5 5.3-1.8 9.2 12.6 2.5 40.5-6.4 20.9s18 39.7 18.2 49.5 8.4 101.5 8.4 101.5l-83.1 6.8 15.4-150s2-36.8 4.4-42.3 26.1-37.7 26.1-37.7z"/>
	<path "st5" d="m426 303.9c-0.1 0.1-0.2 0.1-0.3 0.2-0.3 0.1-0.7 0.2-1 0.3-1.3 0.2-2.6 0-3.8-0.5-1.8-0.8-3.2-2.1-4.3-3.7-1.2-2-2.2-4.1-2.9-6.3-1.4-4-2.1-8.2-2.1-12.4 0-1.3 0-2.5 0.2-3.8 0-0.5 0.1-0.9 0.2-1.4v1.4c0 0.9-0.1 2.2 0 3.8 0.2 4.2 0.9 8.3 2.3 12.2 0.7 2.2 1.7 4.3 2.9 6.2 1 1.6 2.4 2.8 4 3.7 1.1 0.5 2.4 0.8 3.6 0.7 0.7-0.3 1.2-0.5 1.2-0.4z"/>
	<path "st5" d="m456.1 396.7h-0.4l-1.2 0.1-4.7 0.4-17.5 1.5-59.3 5h-0.3v-0.3c0.7-6.5 1.4-13.3 2.1-20.2 2.9-28.5 5.6-54.2 7.5-72.9 1-9.3 1.8-16.9 2.3-22.1 0.3-2.6 0.5-4.6 0.7-6 0.1-0.7 0.1-1.2 0.2-1.6 0-0.2 0-0.4 0.1-0.5v0.5s-0.1 0.9-0.1 1.6c-0.1 1.4-0.3 3.4-0.6 6-0.5 5.2-1.3 12.8-2.2 22.1-1.9 18.7-4.5 44.5-7.4 72.9-0.7 6.9-1.4 13.7-2.1 20.2l-0.3-0.3 59.3-4.7 17.5-1.4 4.7-0.3 1.2-0.1c0.2 0.1 0.3 0.1 0.5 0.1z"/>
	<path "st5" d="m428.9 178.2-0.2 0.2-0.7 0.4-2.6 1.6c-1.1 0.7-2.5 1.5-4 2.5-0.8 0.5-1.6 1.1-2.4 1.7-0.2 0.1-0.3 0.3-0.5 0.5 0 0.2-0.1 0.5-0.1 0.8-0.1 0.6-0.1 1.1-0.2 1.7-0.4 2.5-0.9 5-1.5 7.5-0.7 2.9-1.7 5.6-3.1 8.2-1.5 2.8-4.2 4.8-6.7 7-1.3 1.1-2.4 2.3-3.4 3.7-0.9 1.4-1.3 3.2-1.1 4.9 0.3 1.7 0.8 3.4 1.5 5 0.6 1.6 0.9 3.3 1 5.1 0.1 3.3-0.5 6.5-1.7 9.5-1 2.7-2.4 5.4-3.9 7.9-1.4 2.3-2.8 4.5-4.1 6.4-2.6 3.9-4.6 7-6 9.3-0.7 1.1-1.2 2-1.5 2.6l-0.4 0.7c0 0.1-0.1 0.2-0.1 0.2s0-0.1 0.1-0.2l0.3-0.7c0.3-0.6 0.8-1.5 1.4-2.6 1.3-2.3 3.3-5.5 5.8-9.4 1.3-2 2.7-4.1 4.1-6.4 1.5-2.5 2.8-5.1 3.8-7.8 1.2-3 1.7-6.2 1.6-9.4-0.1-1.7-0.4-3.3-1-4.9-0.7-1.6-1.2-3.3-1.5-5.1-0.2-1.8 0.2-3.7 1.2-5.2 1-1.4 2.1-2.7 3.5-3.8 2.5-2.2 5.1-4.2 6.6-6.9 1.3-2.6 2.4-5.3 3.1-8.1 0.7-2.4 1.2-4.9 1.6-7.4 0.1-0.6 0.2-1.1 0.2-1.7 0-0.3 0-0.5 0.1-0.8 0.2-0.3 0.4-0.5 0.6-0.7 0.9-0.6 1.7-1.2 2.5-1.7 1.6-1 3-1.8 4.1-2.4l2.6-1.5 0.7-0.4c0.1-0.2 0.2-0.3 0.3-0.3z"/>
	<path "st5" d="m427.6 244.6c-0.9 0-1.7-0.1-2.5-0.3-2-0.5-4-1.2-5.7-2.3-1.8-1.1-3.3-2.4-4.7-4-0.6-0.6-1.1-1.4-1.4-2.1 1.8 2.2 4 4.2 6.4 5.7 2.4 1.4 5.1 2.4 7.9 3z"/>
	<path "st5" d="m429.3 246.4c-0.6 0.3-1.3 0.4-2 0.5-3.2 0.5-6.5 0.5-9.7-0.1-0.7-0.1-1.3-0.3-1.9-0.5 0-0.1 3 0.4 6.8 0.5s6.7-0.6 6.8-0.4z"/>
	<path "st5" d="m430.3 181.2s-6.9 0.1-9.2 4.2-7.2 33.5 7.1 59c0.7 1.2 1.3 1.2 1.3 1.2l2.1-6.9s-3.9-28.4-4.5-31.6-1.5-21.5 1.2-21.9c0.7-0.1 1.4-0.1 2-0.1 3.3 0 6.5 1.1 9.1 3.2l2 1.6c-2-4.5-6.2-7.7-11.1-8.7z"/>
		<g "st13">
			<path d="m425.6 193.9c-7.4 13.7-8 30.2-5.3 45.5 0.2 1.9 0.8 3.7 1.9 5.2 1.2 1.5 3.3 2.3 5 1.4 1.2-0.7 2.3-0.4 2.8-1.7 1.5-4.2 2.8-9.7 4.3-14-2.9-12.3-5.9-24.2-8.7-36.4z"/>
		</g>
		<g "st13">
			<path d="m411.9 280.2c-1.9 10-0.6 20.4 3.7 29.7 0.9 2.1 2.2 4 3.8 5.7 1.7 1.6 3.9 2.5 6.3 2.2 2.9-0.4 5.1-2.8 6.1-5.5 0.7-2 0.8-4.4-0.6-5.9-1.7-1.9-4.7-1.5-7.2-2-4.6-0.8-8.1-4.7-9.9-9s-2.1-9-2.4-13.7"/>
		</g>
	<path "st6" d="m460.4 235.1c-0.2-6.2-12.1-30.7-12.1-30.7s-5.5-12.2-6.8-14.6c-2.8-5.4-10.6-5.9-13.5-4.3l2.2 30.2 6.5 22-12.6 23.8 15.7 15.5c21.1-2.6 20.8-35.7 20.6-41.9z"/>
	<path "st5" d="m455.3 238.4c-1 0-1.9-0.1-2.9-0.4-1.8-0.4-4-1.5-6.6-2.1-1.2-0.3-2.5-0.4-3.7-0.3-1 0.1-2 0.4-2.9 0.9-0.8 0.5-1.5 1.1-2.1 1.9 0.1-0.3 0.2-0.5 0.3-0.7 0.4-0.6 0.9-1.1 1.5-1.5 0.9-0.6 1.9-1 3-1.1 1.3-0.2 2.6-0.1 3.9 0.2 2.7 0.6 4.9 1.7 6.6 2.2s2.9 0.9 2.9 0.9z"/>
	<path "st5" d="m447.9 229.1c-0.8 0.2-1.5 0.3-2.3 0.4-1.8 0.2-3.6 0.8-5.3 1.6-1.6 0.9-2.8 2.4-3.3 4.2-0.2 0.8-0.2 1.5-0.1 2.3 0 0-0.1-0.2-0.2-0.6-0.1-0.6-0.1-1.2 0-1.8 0.4-1.9 1.7-3.6 3.4-4.6 1.7-0.9 3.6-1.4 5.5-1.5 0.7-0.1 1.5-0.1 2.3 0z"/>
	<path "st5" d="m441.9 277.3c-0.4-0.1-0.8-0.3-1.1-0.5l-3-1.5c-1.4-0.8-2.8-1.8-4.1-2.8-1.6-1.3-3.1-2.7-4.5-4.1-1.4-1.5-2.6-3.1-3.8-4.8-0.9-1.4-1.7-2.8-2.5-4.3-0.5-1-0.9-2-1.3-3.1-0.2-0.4-0.3-0.8-0.4-1.2 0.1 0 0.7 1.6 2 4.1 0.8 1.5 1.6 2.9 2.5 4.2 1.1 1.7 2.4 3.2 3.8 4.7s2.8 2.9 4.4 4.1c1.3 1 2.6 2 4 2.9 2.4 1.5 4 2.2 4 2.3z"/>
	<path "st5" d="m436.8 237.7c-0.5-1-0.9-2.1-1.2-3.2-0.7-2-1.6-4.8-2.5-7.9s-1.6-5.9-2.1-8c-0.3-1.1-0.5-2.2-0.6-3.4 0.4 1.1 0.7 2.2 1 3.3 0.6 2 1.4 4.9 2.2 8s1.7 5.8 2.4 7.9c0.3 1.1 0.6 2.2 0.8 3.3z"/>
	<path "st5" d="m424.1 261.6c-0.1-0.1 2.6-5.5 6.1-12.1s6.4-11.9 6.5-11.8-2.6 5.5-6.1 12.1c-3.4 6.5-6.3 11.8-6.5 11.8z"/>
	<path "st5" d="m415.7 385c-0.1 0 0.6-9.6 1.7-21.5s2.1-21.5 2.2-21.5-0.6 9.6-1.7 21.5-2 21.5-2.2 21.5z"/>
	<path "st5" d="m425.1 388.9c-0.9-3.1-1.6-6.2-2.2-9.3-0.7-3.1-1.3-6.2-1.7-9.4 0.9 3.1 1.6 6.2 2.2 9.3 0.7 3.1 1.3 6.2 1.7 9.4z"/>
	<path "st3" d="m417.2 364c0 0.1-8.8-0.1-19.6-0.5s-19.6-0.9-19.6-1 8.8 0.1 19.6 0.5 19.6 0.8 19.6 1z"/>
	<path "st3" d="m453.5 368.2c0 0.1-8.1 0.1-18-0.2s-18-0.6-18-0.7 8.1 0 18 0.2 18 0.5 18 0.7z"/>
	<path "st3" d="m418 353.5c0 0.1-8.8-0.1-19.7-0.6s-19.7-1-19.7-1.2 8.8 0.1 19.7 0.7 19.7 0.9 19.7 1.1z"/>
	<path "st3" d="m452.7 358.1c0 0.1-7.8 0-17.3-0.3s-17.3-0.7-17.3-0.8 7.8 0 17.3 0.3 17.3 0.6 17.3 0.8z"/>
	<path "st6" d="m76.3 445c0.7-2.9-1.1-5.7-3.2-7.8s-4.6-3.9-5.7-6.6c-1.8-4.4 0.6-10.1-2.4-13.8-1.8-2.2-4.9-2.9-6.5-5.2-0.7-1.3-1.2-2.7-1.4-4.1-1.7-7.3-5.3-14.1-10.5-19.6-0.4 6.5 1.1 13 4.1 18.9 1.2 2.3 2.7 4.6 3.1 7.2 0.7 4.2-1.7 8.5-0.7 12.6 1.2 4.7 6.5 7.9 6.7 12.7 0.2 4.1-3.4 7.7-3.1 11.8 0.2 1.7 0.8 3.4 1.8 4.9 3.2 5.3 7.8 8.9 14.9 8.8l8.7 0.3-5.8-20.1z"/>
		<g "st13">
			<path d="m76.3 445c0.7-2.9-1.1-5.7-3.2-7.8s-4.6-3.9-5.7-6.6c-1.8-4.4 0.6-10.1-2.4-13.8-1.8-2.2-4.9-2.9-6.5-5.2-0.7-1.3-1.2-2.7-1.4-4.1-1.7-7.3-5.3-14.1-10.5-19.6-0.4 6.5 1.1 13 4.1 18.9 1.2 2.3 2.7 4.6 3.1 7.2 0.7 4.2-1.7 8.5-0.7 12.6 1.2 4.7 6.5 7.9 6.7 12.7 0.2 4.1-3.4 7.7-3.1 11.8 0.2 1.7 0.8 3.4 1.8 4.9 3.2 5.3 7.8 8.9 14.9 8.8l8.7 0.3-5.8-20.1z"/>
		</g>
	<path "st5" d="m83.9 465.2c0.8 0.1 1.6 0.1 2.4 0 1-0.1 1.9-0.4 2.8-0.7 1.3-0.4 2.4-1.1 3.5-1.9 0.6-0.5 1.1-1.2 1.4-1.9 0.3-0.8 0.4-1.7 0.4-2.6s0.1-1.9 0.2-2.8c0.2-1 0.5-1.9 1.1-2.8 1-1.8 2.7-3.5 3.3-5.9s0.2-5-0.2-7.6-0.8-5.4 0.2-8.1 2.8-5.1 3.8-8.2 0.5-6.4 0.7-9.7c0.1-1.7 0.4-3.3 1.1-4.8s1.7-3 2.4-4.6c1.5-3.3 1.8-7 2.2-10.6 0.2-1.8 0.4-3.7 0.6-5.5 0.1-1.9 0.5-3.7 1-5.5 0.6-1.8 1.3-3.6 2.1-5.4 0.4-0.9 0.7-1.8 1-2.8l0.3-3c0.1-2 0-4-0.2-6s-0.6-4-0.8-6v-0.3l-0.1-0.4-0.3 0.2c-1.8 0.9-3.4 2.3-4.7 3.9-1.2 1.6-2.2 3.4-2.9 5.3-1.4 3.7-2 7.6-2.7 11.3-0.5 3.7-1.7 7.2-3.6 10.5-0.9 1.5-2.1 2.9-3.1 4.5-1.1 1.5-1.8 3.1-2.2 4.9-0.5 3.7 1.5 6.9 1.1 10.1-0.2 1.6-0.7 3.1-1.6 4.5-0.8 1.4-1.7 2.7-2.6 4s-1.7 2.6-2.3 4-1 2.8-1.1 4.3c-0.2 2.9 0.2 5.7 0 8.3-0.3 2.5-1 4.9-2.2 7.1-1 2.1-2.2 4.1-3.2 5.9-0.5 0.9-0.9 1.8-1.3 2.8-0.4 0.9-0.6 1.8-0.8 2.7-0.3 1.6-0.3 3.3-0.1 4.9 0.2 2.3 1.1 4.5 2.5 6.3 0.2 0.3 0.4 0.5 0.7 0.8 0.2 0.2 0.4 0.3 0.6 0.5l0.6 0.3c-0.6-0.5-1.2-1-1.7-1.6-1.3-1.8-2.1-4-2.3-6.3-0.2-1.6-0.2-3.3 0.1-4.9 0.2-0.9 0.4-1.8 0.8-2.7s0.8-1.8 1.3-2.7c1-1.9 2.2-3.8 3.2-5.9 1.2-2.2 2-4.7 2.2-7.2 0.2-2.7-0.2-5.5 0-8.3 0.1-1.4 0.4-2.9 1-4.2 0.6-1.4 1.4-2.7 2.3-3.9 0.9-1.3 1.8-2.6 2.6-4 0.9-1.4 1.4-3 1.7-4.7 0.4-3.5-1.6-6.7-1.1-10.1 0.3-1.7 1-3.3 2.1-4.7 1-1.5 2.1-2.9 3.1-4.5 1.9-3.3 3.1-6.9 3.7-10.6 0.7-3.7 1.3-7.6 2.7-11.2 0.7-1.8 1.6-3.6 2.8-5.1 1.2-1.6 2.7-2.9 4.5-3.8l-0.4-0.2v0.4c0.2 2 0.6 4 0.8 6s0.3 3.9 0.2 5.9c-0.1 1-0.1 2-0.3 2.9-0.3 0.9-0.6 1.8-1 2.7-0.8 1.8-1.5 3.6-2.1 5.4-0.5 1.8-0.9 3.7-1 5.6-0.2 1.9-0.4 3.7-0.6 5.5-0.4 3.6-0.7 7.3-2.2 10.4-0.7 1.6-1.7 3-2.4 4.6s-1.1 3.3-1.2 5c-0.2 3.3 0.2 6.6-0.7 9.6s-2.8 5.4-3.7 8.2-0.6 5.7-0.2 8.3 0.8 5.1 0.3 7.4-2.2 4-3.2 5.9c-0.5 0.9-0.9 1.9-1.1 2.9-0.1 0.9-0.2 1.9-0.2 2.8s-0.1 1.7-0.4 2.5c-0.3 0.7-0.8 1.3-1.3 1.8-1 0.8-2.2 1.5-3.4 1.9-0.9 0.3-1.8 0.6-2.8 0.8-0.6 0.1-1.2 0.2-1.8 0.2l-0.3-0.1z"/>
	<path "st5" d="m111.2 363.3c0 0.1-0.1 0.2-0.1 0.3 0 0.2-0.1 0.5-0.2 0.8-0.2 0.7-0.4 1.7-0.7 3s-1.1 2.7-1.8 4.5c-0.8 2-1.4 4.1-2 6.1-0.7 2.3-1.2 4.9-1.9 7.6-0.5 2.9-1.5 5.8-2.8 8.5-0.7 1.4-1.5 2.8-2.1 4.4s-1 3.3-1.2 5c-0.4 3.5-1.1 7-1.9 10.5-1.7 7.1-3.4 13.8-4.9 20l-4.1 16.3c-1.1 4.6-2.1 8.4-2.7 11-0.3 1.3-0.5 2.3-0.7 3-0.1 0.3-0.1 0.6-0.2 0.8v0.3-0.2l0.2-0.8 0.8-3c0.7-2.6 1.7-6.4 2.9-11s2.6-10.2 4.2-16.3 3.2-12.9 4.9-20c0.8-3.5 1.4-7 1.9-10.5 0.2-1.7 0.6-3.3 1.2-4.8s1.4-2.9 2.1-4.4c1.3-2.7 2.2-5.6 2.8-8.6 0.6-2.8 1.2-5.3 1.8-7.6s1.3-4.4 2-6.1 1.4-3.2 1.7-4.6 0.5-2.3 0.6-3c0-0.3 0.1-0.6 0.1-0.8 0.2-0.2 0.2-0.3 0.1-0.4z"/>
	<path "st6" d="m85.4 465.2c5.7-3.4 7.3-13.5 4.9-19.7s-6.5-11.7-7.1-18.3c-0.5-5 1.2-10.2 0-15.1-1.6-6.6-8.1-11.8-8-18.6 0-3.8 2.2-7.4 2-11.2-0.2-4.7-3.8-8.4-6-12.5-3.4-6.3-3.6-13.8-4.8-20.9s-3.9-14.7-10.2-18.2c-0.9 6-2.5 10.1-2 18.3 0.2 2.9 3.6 8.5 4 15 0.3 3.8 0.5 7.7 0.7 11.5s0.5 7.5 1.8 11c1 2.7 2.7 5.1 3.4 7.9 1.4 5.2-0.5 10.8 0.7 16.1 1 4.5 4.1 8.3 4.7 12.8 0.9 6.4-3.2 13-1.1 19 1 3 3.5 5.4 4.2 8.5 0.5 2.4 0 5 0.4 7.4 0.8 3.9 8.2 6.9 12.2 6.7"/>
	<path "st5" d="m57.8 336.7v0.3l0.1 1c0.1 0.9 0.3 2.1 0.6 3.8s1.2 3.5 1.9 5.8 1.4 4.8 2.1 7.7 1.2 6.1 1.8 9.6c0.5 3.7 1.4 7.4 2.9 10.8 0.8 1.8 1.7 3.6 2.3 5.5 0.7 2 1.1 4 1.2 6.1 0.3 4.4 0.9 8.8 1.7 13.2l4.9 25.1c1.6 7.7 3 14.6 4.2 20.5s2.2 10.5 2.9 13.8c0.3 1.6 0.6 2.9 0.8 3.8 0.1 0.4 0.2 0.7 0.2 1 0 0.1 0.1 0.2 0.1 0.3v-0.3c0-0.2-0.1-0.6-0.2-1-0.2-0.9-0.4-2.2-0.7-3.8-0.7-3.3-1.6-8-2.7-13.8s-2.6-12.8-4.1-20.5-3.1-16.2-4.8-25.1c-0.8-4.3-1.3-8.7-1.7-13.1-0.1-2.1-0.6-4.2-1.2-6.3-0.7-2-1.6-3.8-2.4-5.6-1.5-3.4-2.4-7-2.9-10.7-0.6-3.5-1.2-6.7-1.8-9.6s-1.4-5.5-2.2-7.8-1.6-4.1-1.9-5.7-0.5-2.9-0.7-3.8c-0.1-0.4-0.1-0.7-0.2-1-0.1 0-0.1-0.1-0.2-0.2z"/>
</svg>
